<svg width="13" height="14" viewBox="0 0 13 14" fill="none" xmlns="http://www.w3.org/2000/svg">
<path d="M12.2344 8.72656L10.9297 8.98437L12.3828 9.82031C12.5026 9.88802 12.5781 9.98958 12.6094 10.125C12.6458 10.2552 12.6302 10.3802 12.5625 10.5C12.4896 10.6198 12.388 10.6979 12.2578 10.7344C12.1276 10.7656 12.0026 10.7474 11.8828 10.6797L10.4297 9.85156L10.8594 11.1016C10.9271 11.2995 10.8958 11.4661 10.7656 11.6016C10.6354 11.7318 10.4766 11.7839 10.2891 11.7578C10.1068 11.7318 9.98177 11.6224 9.91406 11.4297L9.11719 9.08594L7 7.86719V10.3125L8.625 12.1719C8.70833 12.2656 8.7526 12.3672 8.75781 12.4766C8.76302 12.5859 8.73438 12.6797 8.67188 12.7578C8.60938 12.8411 8.53385 12.9063 8.44531 12.9531C8.36198 13.0052 8.26563 13.0208 8.15625 13C8.05208 12.9792 7.95833 12.9219 7.875 12.8281L7 11.8281V13.5C7 13.6354 6.95052 13.7526 6.85156 13.8516C6.7526 13.9505 6.63542 14 6.5 14C6.36458 14 6.2474 13.9505 6.14844 13.8516C6.04948 13.7526 6 13.6354 6 13.5V11.8281L5.125 12.8281C5.04167 12.9219 4.94531 12.9792 4.83594 13C4.73177 13.0208 4.63542 13.0052 4.54688 12.9531C4.46354 12.9063 4.39063 12.8411 4.32813 12.7578C4.26563 12.6797 4.23698 12.5859 4.24219 12.4766C4.2474 12.3672 4.29167 12.2656 4.375 12.1719L6 10.3125V7.86719L3.88281 9.08594L3.08594 11.4297C3.01823 11.6224 2.89063 11.7318 2.70313 11.7578C2.52083 11.7839 2.36458 11.7318 2.23438 11.6016C2.10417 11.4661 2.07292 11.2995 2.14063 11.1016L2.57031 9.85156L1.11719 10.6797C0.997396 10.7474 0.872396 10.7656 0.742188 10.7344C0.611979 10.6979 0.510417 10.6198 0.4375 10.5C0.369792 10.3802 0.351563 10.2552 0.382813 10.125C0.419271 9.98958 0.497396 9.88802 0.617188 9.82031L2.07031 8.98437L0.765625 8.72656C0.614583 8.69531 0.505208 8.61979 0.4375 8.5C0.369792 8.38021 0.346354 8.26042 0.367188 8.14062C0.393229 8.01562 0.460938 7.91146 0.570313 7.82812C0.679688 7.73958 0.809896 7.71094 0.960938 7.74219L3.38281 8.22656L5.5 7L3.38281 5.77344L0.960938 6.25781C0.940104 6.26302 0.90625 6.26562 0.859375 6.26562C0.71875 6.26562 0.604167 6.21875 0.515625 6.125C0.427083 6.03125 0.377604 5.92708 0.367188 5.8125C0.356771 5.69792 0.385417 5.58594 0.453125 5.47656C0.520833 5.36719 0.625 5.29948 0.765625 5.27344L2.07031 5.01562L0.617188 4.17969C0.497396 4.11198 0.419271 4.01302 0.382813 3.88281C0.351563 3.7474 0.369792 3.61979 0.4375 3.5C0.505208 3.38021 0.606771 3.30208 0.742188 3.26562C0.877604 3.22917 1.0026 3.2474 1.11719 3.32031L2.57031 4.14844L2.14063 2.89844C2.07292 2.70052 2.10417 2.53646 2.23438 2.40625C2.36458 2.27083 2.52083 2.21615 2.70313 2.24219C2.89063 2.26823 3.01823 2.3776 3.08594 2.57031L3.88281 4.91406L6 6.13281V3.6875L4.375 1.82812C4.29167 1.73437 4.2474 1.63281 4.24219 1.52344C4.23698 1.41406 4.26563 1.32031 4.32813 1.24219C4.39063 1.15885 4.46354 1.09375 4.54688 1.04687C4.63542 0.994791 4.73177 0.979166 4.83594 0.999999C4.94531 1.02083 5.04167 1.07812 5.125 1.17187L6 2.17187V0.5C6 0.364583 6.04948 0.247395 6.14844 0.148437C6.2474 0.0494784 6.36458 -9.53674e-07 6.5 -9.53674e-07C6.63542 -9.53674e-07 6.7526 0.0494784 6.85156 0.148437C6.95052 0.247395 7 0.364583 7 0.5V2.17187L7.875 1.17187C7.95833 1.07812 8.05208 1.02083 8.15625 0.999999C8.26563 0.979166 8.36198 0.994791 8.44531 1.04687C8.53385 1.09375 8.60938 1.15885 8.67188 1.24219C8.73438 1.32031 8.76302 1.41406 8.75781 1.52344C8.7526 1.63281 8.70833 1.73437 8.625 1.82812L7 3.6875V6.13281L9.11719 4.91406L9.91406 2.57031C9.98177 2.3776 10.1068 2.26823 10.2891 2.24219C10.4766 2.21615 10.6354 2.27083 10.7656 2.40625C10.8958 2.53646 10.9271 2.70052 10.8594 2.89844L10.4297 4.14844L11.8828 3.32031C12.0026 3.2526 12.1276 3.23698 12.2578 3.27344C12.388 3.30469 12.4896 3.38021 12.5625 3.5C12.6302 3.61979 12.6458 3.7474 12.6094 3.88281C12.5781 4.01302 12.5026 4.11198 12.3828 4.17969L10.9297 5.01562L12.2344 5.27344C12.375 5.29948 12.4792 5.36719 12.5469 5.47656C12.6146 5.58594 12.6432 5.69792 12.6328 5.8125C12.6224 5.92708 12.5729 6.03125 12.4844 6.125C12.3958 6.21875 12.2813 6.26562 12.1406 6.26562C12.0938 6.26562 12.0599 6.26302 12.0391 6.25781L9.61719 5.77344L7.5 7L9.61719 8.22656L12.0391 7.74219C12.1901 7.71094 12.3203 7.73958 12.4297 7.82812C12.5391 7.91146 12.6042 8.01562 12.625 8.14062C12.651 8.26042 12.6302 8.38021 12.5625 8.5C12.4948 8.61979 12.3854 8.69531 12.2344 8.72656Z" fill="#1D1D18"/>
</svg>
