<svg width="14" height="16" viewBox="0 0 14 16" fill="none" xmlns="http://www.w3.org/2000/svg">
<path d="M12.625 5.68738H1.375C1.11612 5.68738 0.90625 5.89725 0.90625 6.15613C0.90625 6.415 1.11612 6.62488 1.375 6.62488H12.625C12.8839 6.62488 13.0938 6.415 13.0938 6.15613C13.0938 5.89725 12.8839 5.68738 12.625 5.68738Z" fill="#1D1D18"/>
<path d="M3.8558 3.88721C3.67274 4.07027 3.67274 4.36705 3.8558 4.55011C4.03886 4.73317 4.33568 4.73314 4.51871 4.55011C5.30174 3.76717 5.33489 2.82817 4.52002 2.01349C4.08996 1.57636 4.09039 1.23546 4.52002 0.7988C4.70177 0.615644 4.70136 0.3198 4.51871 0.137175C4.33568 -0.0458877 4.03886 -0.0458877 3.8558 0.137175C3.07277 0.920112 3.03961 1.85911 3.85449 2.6738C4.28349 3.10986 4.28471 3.45124 3.8558 3.88721Z" fill="#1D1D18"/>
<path d="M6.6683 3.88721C6.48524 4.07027 6.48524 4.36705 6.6683 4.55011C6.85136 4.73317 7.14818 4.73314 7.33121 4.55011C8.11424 3.76717 8.1474 2.82817 7.33252 2.01349C6.90246 1.57636 6.90289 1.23546 7.33252 0.7988C7.51427 0.615644 7.51386 0.3198 7.33121 0.137175C7.14818 -0.0458877 6.85136 -0.0458877 6.6683 0.137175C5.88527 0.920112 5.85211 1.85911 6.66699 2.6738C7.09599 3.10986 7.09721 3.45124 6.6683 3.88721Z" fill="#1D1D18"/>
<path d="M9.4808 3.88721C9.29774 4.07027 9.29774 4.36705 9.4808 4.55011C9.66386 4.73317 9.96068 4.73314 10.1437 4.55011C10.9267 3.76717 10.9599 2.82817 10.145 2.01349C9.71496 1.57636 9.71539 1.23546 10.145 0.7988C10.3268 0.615644 10.3264 0.3198 10.1437 0.137175C9.96068 -0.0458877 9.66386 -0.0458877 9.4808 0.137175C8.69777 0.920112 8.66461 1.85911 9.47949 2.6738C9.90849 3.10986 9.90971 3.45124 9.4808 3.88721Z" fill="#1D1D18"/>
<path d="M7.00031 11.3124C9.35625 11.3124 11.3481 9.72425 11.9616 7.56238H2.03906C2.6525 9.72425 4.64438 11.3124 7.00031 11.3124Z" fill="#1D1D18"/>
<path d="M10.75 15.0625H10.2097L9.64031 11.6475C9.35437 11.7856 9.05625 11.9021 8.74781 11.9946L8.94656 13.1875H5.05344L5.25219 11.9946C4.94375 11.9021 4.64562 11.7856 4.35969 11.6475L3.79031 15.0625H3.25C2.99125 15.0625 2.78125 15.2725 2.78125 15.5312C2.78125 15.79 2.99125 16 3.25 16H4.1875C4.41656 16 4.61219 15.8343 4.65 15.6084L4.89719 14.125H9.10281L9.35 15.6084C9.38781 15.8343 9.58344 16 9.8125 16H10.75C11.0087 16 11.2188 15.79 11.2188 15.5312C11.2188 15.2725 11.0087 15.0625 10.75 15.0625Z" fill="#1D1D18"/>
</svg>
