<svg width="12" height="12" viewBox="0 0 12 12" fill="none" xmlns="http://www.w3.org/2000/svg">
<path d="M8.92969 5.82031C8.97656 5.86719 9 5.92708 9 6C9 6.07292 8.97656 6.13281 8.92969 6.17969L6.42969 8.67969C6.38281 8.72656 6.32292 8.75 6.25 8.75C6.18229 8.75 6.1224 8.72656 6.07031 8.67969C6.02344 8.6276 6 8.56771 6 8.5V7H3.25C3.18229 7 3.1224 6.97656 3.07031 6.92969C3.02344 6.8776 3 6.81771 3 6.75V5.25C3 5.18229 3.02344 5.125 3.07031 5.07812C3.1224 5.02604 3.18229 5 3.25 5H6V3.5C6 3.42708 6.02344 3.36719 6.07031 3.32031C6.11719 3.27344 6.17708 3.25 6.25 3.25C6.3125 3.25 6.375 3.27604 6.4375 3.32812L8.92969 5.82031ZM9.67969 8.13281C10.0599 7.48177 10.25 6.77083 10.25 6C10.25 5.22917 10.0599 4.51823 9.67969 3.86719C9.29948 3.21615 8.78385 2.70052 8.13281 2.32031C7.48177 1.9401 6.77083 1.75 6 1.75C5.22917 1.75 4.51823 1.9401 3.86719 2.32031C3.21615 2.70052 2.70052 3.21615 2.32031 3.86719C1.9401 4.51823 1.75 5.22917 1.75 6C1.75 6.77083 1.9401 7.48177 2.32031 8.13281C2.70052 8.78385 3.21615 9.29948 3.86719 9.67969C4.51823 10.0599 5.22917 10.25 6 10.25C6.77083 10.25 7.48177 10.0599 8.13281 9.67969C8.78385 9.29948 9.29948 8.78385 9.67969 8.13281ZM11.1953 2.99219C11.7318 3.90885 12 4.91146 12 6C12 7.08854 11.7318 8.09375 11.1953 9.01562C10.6589 9.93229 9.92969 10.6589 9.00781 11.1953C8.09115 11.7318 7.08854 12 6 12C4.91146 12 3.90625 11.7318 2.98438 11.1953C2.06771 10.6589 1.34115 9.93229 0.804688 9.01562C0.268229 8.09375 0 7.08854 0 6C0 4.91146 0.268229 3.90885 0.804688 2.99219C1.34115 2.07031 2.06771 1.34115 2.98438 0.804687C3.90625 0.268229 4.91146 -5.96046e-07 6 -5.96046e-07C7.08854 -5.96046e-07 8.09115 0.268229 9.00781 0.804687C9.92969 1.34115 10.6589 2.07031 11.1953 2.99219Z" fill="white"/>
</svg>
