<svg width="49" height="30" viewBox="0 0 49 30" fill="none" xmlns="http://www.w3.org/2000/svg">
<path opacity="0.4" d="M6.00586 18H46.5059C46.9121 18 47.2637 18.1484 47.5605 18.4453C47.8574 18.7422 48.0059 19.0937 48.0059 19.5V30H42.0059V24H6.00586V30H0.00585938V1.5C0.00585938 1.09375 0.154297 0.742187 0.451172 0.445311C0.748047 0.148436 1.09961 -7.15256e-07 1.50586 -7.15256e-07H4.50586C4.91211 -7.15256e-07 5.26367 0.148436 5.56055 0.445311C5.85742 0.742187 6.00586 1.09375 6.00586 1.5V18ZM17.748 14.7422C18.9199 13.5703 19.5059 12.1562 19.5059 10.5C19.5059 8.84375 18.9199 7.42969 17.748 6.25781C16.5762 5.08594 15.1621 4.5 13.5059 4.5C11.8496 4.5 10.4355 5.08594 9.26367 6.25781C8.0918 7.42969 7.50586 8.84375 7.50586 10.5C7.50586 12.1562 8.0918 13.5703 9.26367 14.7422C10.4355 15.9141 11.8496 16.5 13.5059 16.5C15.1621 16.5 16.5762 15.9141 17.748 14.7422ZM48.0059 16.5V15C48.0059 12.5156 47.123 10.3984 45.3574 8.64844C43.6074 6.88281 41.4902 6 39.0059 6H22.5059C22.0996 6 21.748 6.14844 21.4512 6.44531C21.1543 6.74219 21.0059 7.09375 21.0059 7.5V16.5H48.0059Z" fill="#8B8881"/>
</svg>
