<svg width="31" height="36" viewBox="0 0 31 36" fill="none" xmlns="http://www.w3.org/2000/svg">
<path opacity="0.4" d="M30.0088 29.7891C30.0088 31.4922 29.5166 32.9531 28.5322 34.1719C27.5635 35.3906 26.3916 36 25.0166 36H5.00098C3.62598 36 2.44629 35.3906 1.46191 34.1719C0.493164 32.9531 0.00878906 31.4922 0.00878906 29.7891C0.00878906 28.4609 0.0712891 27.2109 0.196289 26.0391C0.336914 24.8516 0.586914 23.6641 0.946289 22.4766C1.30566 21.2734 1.75879 20.25 2.30566 19.4062C2.86816 18.5469 3.60254 17.8516 4.50879 17.3203C5.43066 16.7734 6.48535 16.5 7.67285 16.5C9.71973 18.5 12.165 19.5 15.0088 19.5C17.8525 19.5 20.2979 18.5 22.3447 16.5C23.5322 16.5 24.5791 16.7734 25.4854 17.3203C26.4072 17.8516 27.1416 18.5469 27.6885 19.4062C28.251 20.25 28.7119 21.2734 29.0713 22.4766C29.4307 23.6641 29.6729 24.8516 29.7979 26.0391C29.9385 27.2109 30.0088 28.4609 30.0088 29.7891ZM21.3604 2.64843C23.126 4.39844 24.0088 6.51562 24.0088 9C24.0088 11.4844 23.126 13.6094 21.3604 15.375C19.6104 17.125 17.4932 18 15.0088 18C12.5244 18 10.3994 17.125 8.63379 15.375C6.88379 13.6094 6.00879 11.4844 6.00879 9C6.00879 6.51562 6.88379 4.39844 8.63379 2.64843C10.3994 0.88281 12.5244 -1.78814e-06 15.0088 -1.78814e-06C17.4932 -1.78814e-06 19.6104 0.88281 21.3604 2.64843Z" fill="#8B8881"/>
</svg>
