<svg width="27" height="25" viewBox="0 0 27 25" fill="none" xmlns="http://www.w3.org/2000/svg">
<path opacity="0.4" d="M20.1314 3.76339C20.2207 3.85268 20.2653 3.95536 20.2653 4.07143C20.2653 4.1875 20.2207 4.29018 20.1314 4.37946L11.7475 12.7634C11.6582 12.8527 11.5555 12.8973 11.4395 12.8973C11.3234 12.8973 11.2207 12.8527 11.1314 12.7634L10.0332 11.6652C9.94392 11.5759 9.89928 11.4732 9.89928 11.3571C9.89928 11.2411 9.94392 11.1384 10.0332 11.0491L10.6225 10.4598C9.97963 9.64732 9.61356 8.72321 9.52428 7.6875C9.44392 6.65178 9.65374 5.69196 10.1537 4.80803C9.49302 4.17411 8.70731 3.85714 7.7966 3.85714C6.85017 3.85714 6.04213 4.19196 5.37249 4.86161C4.70285 5.53125 4.36802 6.33929 4.36802 7.28571V24.4286H0.939453V7.28571C0.939453 6.35714 1.11802 5.47321 1.47517 4.63393C1.84124 3.78571 2.33231 3.05357 2.94838 2.4375C3.56445 1.82143 4.29213 1.33482 5.13142 0.977677C5.97963 0.611606 6.86802 0.42857 7.7966 0.42857C8.74303 0.42857 9.64035 0.611606 10.4886 0.977677C11.3368 1.34375 12.0778 1.85714 12.7118 2.51786C13.5511 2.16964 14.4305 2.0625 15.3502 2.19643C16.2698 2.32143 17.0957 2.67411 17.8278 3.25446L18.4171 2.66518C18.5064 2.57589 18.6091 2.53125 18.7252 2.53125C18.8412 2.53125 18.9439 2.57589 19.0332 2.66518L20.1314 3.76339ZM18.3368 7.54018C18.5064 7.37053 18.7073 7.28571 18.9395 7.28571C19.1716 7.28571 19.3725 7.37053 19.5421 7.54018C19.7118 7.70982 19.7966 7.91071 19.7966 8.14286C19.7966 8.375 19.7118 8.57589 19.5421 8.74553C19.3725 8.91518 19.1716 9 18.9395 9C18.7073 9 18.5064 8.91518 18.3368 8.74553C18.1671 8.57589 18.0823 8.375 18.0823 8.14286C18.0823 7.91071 18.1671 7.70982 18.3368 7.54018ZM22.9707 8.74553C22.8011 8.91518 22.6002 9 22.368 9C22.1359 9 21.935 8.91518 21.7653 8.74553C21.5957 8.57589 21.5109 8.375 21.5109 8.14286C21.5109 7.91071 21.5957 7.70982 21.7653 7.54018C21.935 7.37053 22.1359 7.28571 22.368 7.28571C22.6002 7.28571 22.8011 7.37053 22.9707 7.54018C23.1403 7.70982 23.2252 7.91071 23.2252 8.14286C23.2252 8.375 23.1403 8.57589 22.9707 8.74553ZM25.1939 7.54018C25.3636 7.37053 25.5645 7.28571 25.7966 7.28571C26.0287 7.28571 26.2296 7.37053 26.3993 7.54018C26.5689 7.70982 26.6537 7.91071 26.6537 8.14286C26.6537 8.375 26.5689 8.57589 26.3993 8.74553C26.2296 8.91518 26.0287 9 25.7966 9C25.5645 9 25.3636 8.91518 25.1939 8.74553C25.0243 8.57589 24.9395 8.375 24.9395 8.14286C24.9395 7.91071 25.0243 7.70982 25.1939 7.54018ZM16.6225 9.25446C16.7921 9.08482 16.993 9 17.2252 9C17.4573 9 17.6582 9.08482 17.8278 9.25446C17.9975 9.42411 18.0823 9.625 18.0823 9.85714C18.0823 10.0893 17.9975 10.2902 17.8278 10.4598C17.6582 10.6295 17.4573 10.7143 17.2252 10.7143C16.993 10.7143 16.7921 10.6295 16.6225 10.4598C16.4528 10.2902 16.368 10.0893 16.368 9.85714C16.368 9.625 16.4528 9.42411 16.6225 9.25446ZM20.0511 10.4598C19.8814 10.2902 19.7966 10.0893 19.7966 9.85714C19.7966 9.625 19.8814 9.42411 20.0511 9.25446C20.2207 9.08482 20.4216 9 20.6537 9C20.8859 9 21.0868 9.08482 21.2564 9.25446C21.4261 9.42411 21.5109 9.625 21.5109 9.85714C21.5109 10.0893 21.4261 10.2902 21.2564 10.4598C21.0868 10.6295 20.8859 10.7143 20.6537 10.7143C20.4216 10.7143 20.2207 10.6295 20.0511 10.4598ZM23.4796 9.25446C23.6493 9.08482 23.8502 9 24.0823 9C24.3145 9 24.5153 9.08482 24.685 9.25446C24.8546 9.42411 24.9395 9.625 24.9395 9.85714C24.9395 10.0893 24.8546 10.2902 24.685 10.4598C24.5153 10.6295 24.3145 10.7143 24.0823 10.7143C23.8502 10.7143 23.6493 10.6295 23.4796 10.4598C23.31 10.2902 23.2252 10.0893 23.2252 9.85714C23.2252 9.625 23.31 9.42411 23.4796 9.25446ZM14.9082 10.9687C15.0778 10.7991 15.2787 10.7143 15.5109 10.7143C15.743 10.7143 15.9439 10.7991 16.1136 10.9687C16.2832 11.1384 16.368 11.3393 16.368 11.5714C16.368 11.8036 16.2832 12.0045 16.1136 12.1741C15.9439 12.3437 15.743 12.4286 15.5109 12.4286C15.2787 12.4286 15.0778 12.3437 14.9082 12.1741C14.7386 12.0045 14.6537 11.8036 14.6537 11.5714C14.6537 11.3393 14.7386 11.1384 14.9082 10.9687ZM19.5421 12.1741C19.3725 12.3437 19.1716 12.4286 18.9395 12.4286C18.7073 12.4286 18.5064 12.3437 18.3368 12.1741C18.1671 12.0045 18.0823 11.8036 18.0823 11.5714C18.0823 11.3393 18.1671 11.1384 18.3368 10.9687C18.5064 10.7991 18.7073 10.7143 18.9395 10.7143C19.1716 10.7143 19.3725 10.7991 19.5421 10.9687C19.7118 11.1384 19.7966 11.3393 19.7966 11.5714C19.7966 11.8036 19.7118 12.0045 19.5421 12.1741ZM21.7653 10.9687C21.935 10.7991 22.1359 10.7143 22.368 10.7143C22.6002 10.7143 22.8011 10.7991 22.9707 10.9687C23.1403 11.1384 23.2252 11.3393 23.2252 11.5714C23.2252 11.8036 23.1403 12.0045 22.9707 12.1741C22.8011 12.3437 22.6002 12.4286 22.368 12.4286C22.1359 12.4286 21.935 12.3437 21.7653 12.1741C21.5957 12.0045 21.5109 11.8036 21.5109 11.5714C21.5109 11.3393 21.5957 11.1384 21.7653 10.9687ZM17.8278 13.8884C17.6582 14.058 17.4573 14.1429 17.2252 14.1429C16.993 14.1429 16.7921 14.058 16.6225 13.8884C16.4528 13.7187 16.368 13.5179 16.368 13.2857C16.368 13.0536 16.4528 12.8527 16.6225 12.683C16.7921 12.5134 16.993 12.4286 17.2252 12.4286C17.4573 12.4286 17.6582 12.5134 17.8278 12.683C17.9975 12.8527 18.0823 13.0536 18.0823 13.2857C18.0823 13.5179 17.9975 13.7187 17.8278 13.8884ZM20.0511 12.683C20.2207 12.5134 20.4216 12.4286 20.6537 12.4286C20.8859 12.4286 21.0868 12.5134 21.2564 12.683C21.4261 12.8527 21.5109 13.0536 21.5109 13.2857C21.5109 13.5179 21.4261 13.7187 21.2564 13.8884C21.0868 14.058 20.8859 14.1429 20.6537 14.1429C20.4216 14.1429 20.2207 14.058 20.0511 13.8884C19.8814 13.7187 19.7966 13.5179 19.7966 13.2857C19.7966 13.0536 19.8814 12.8527 20.0511 12.683ZM14.9082 14.3973C15.0778 14.2277 15.2787 14.1429 15.5109 14.1429C15.743 14.1429 15.9439 14.2277 16.1136 14.3973C16.2832 14.567 16.368 14.7679 16.368 15C16.368 15.2321 16.2832 15.433 16.1136 15.6027C15.9439 15.7723 15.743 15.8571 15.5109 15.8571C15.2787 15.8571 15.0778 15.7723 14.9082 15.6027C14.7386 15.433 14.6537 15.2321 14.6537 15C14.6537 14.7679 14.7386 14.567 14.9082 14.3973ZM18.3368 14.3973C18.5064 14.2277 18.7073 14.1429 18.9395 14.1429C19.1716 14.1429 19.3725 14.2277 19.5421 14.3973C19.7118 14.567 19.7966 14.7679 19.7966 15C19.7966 15.2321 19.7118 15.433 19.5421 15.6027C19.3725 15.7723 19.1716 15.8571 18.9395 15.8571C18.7073 15.8571 18.5064 15.7723 18.3368 15.6027C18.1671 15.433 18.0823 15.2321 18.0823 15C18.0823 14.7679 18.1671 14.567 18.3368 14.3973ZM16.6225 16.1116C16.7921 15.942 16.993 15.8571 17.2252 15.8571C17.4573 15.8571 17.6582 15.942 17.8278 16.1116C17.9975 16.2812 18.0823 16.4821 18.0823 16.7143C18.0823 16.9464 17.9975 17.1473 17.8278 17.317C17.6582 17.4866 17.4573 17.5714 17.2252 17.5714C16.993 17.5714 16.7921 17.4866 16.6225 17.317C16.4528 17.1473 16.368 16.9464 16.368 16.7143C16.368 16.4821 16.4528 16.2812 16.6225 16.1116ZM14.9082 17.8259C15.0778 17.6562 15.2787 17.5714 15.5109 17.5714C15.743 17.5714 15.9439 17.6562 16.1136 17.8259C16.2832 17.9955 16.368 18.1964 16.368 18.4286C16.368 18.6607 16.2832 18.8616 16.1136 19.0312C15.9439 19.2009 15.743 19.2857 15.5109 19.2857C15.2787 19.2857 15.0778 19.2009 14.9082 19.0312C14.7386 18.8616 14.6537 18.6607 14.6537 18.4286C14.6537 18.1964 14.7386 17.9955 14.9082 17.8259Z" fill="#8B8881"/>
</svg>
