<svg width="18" height="21" viewBox="0 0 18 21" fill="none" xmlns="http://www.w3.org/2000/svg">
<path opacity="0.4" d="M17.3929 17.1652C17.3929 18.1384 17.1116 18.9732 16.5491 19.6696C15.9955 20.3661 15.3259 20.7143 14.5402 20.7143H3.10268C2.31696 20.7143 1.64286 20.3661 1.08036 19.6696C0.526786 18.9732 0.25 18.1384 0.25 17.1652C0.25 16.4062 0.285714 15.692 0.357143 15.0223C0.4375 14.3437 0.580357 13.6652 0.785714 12.9866C0.991071 12.2991 1.25 11.7143 1.5625 11.2321C1.88393 10.7411 2.30357 10.3437 2.82143 10.0402C3.34821 9.72768 3.95089 9.57143 4.62946 9.57143C5.79911 10.7143 7.19643 11.2857 8.82143 11.2857C10.4464 11.2857 11.8438 10.7143 13.0134 9.57143C13.692 9.57143 14.2902 9.72768 14.808 10.0402C15.3348 10.3437 15.7545 10.7411 16.067 11.2321C16.3884 11.7143 16.6518 12.2991 16.8571 12.9866C17.0625 13.6652 17.2009 14.3437 17.2723 15.0223C17.3527 15.692 17.3929 16.4062 17.3929 17.1652ZM12.4509 1.65625C13.4598 2.65625 13.9643 3.86607 13.9643 5.28571C13.9643 6.70536 13.4598 7.91964 12.4509 8.92857C11.4509 9.92857 10.2411 10.4286 8.82143 10.4286C7.40179 10.4286 6.1875 9.92857 5.17857 8.92857C4.17857 7.91964 3.67857 6.70536 3.67857 5.28571C3.67857 3.86607 4.17857 2.65625 5.17857 1.65625C6.1875 0.64732 7.40179 0.142856 8.82143 0.142856C10.2411 0.142856 11.4509 0.64732 12.4509 1.65625Z" fill="#8B8881"/>
</svg>
