<svg width="13" height="12" viewBox="0 0 13 12" fill="none" xmlns="http://www.w3.org/2000/svg">
<path d="M8.49805 9.75V8.5C8.49805 8.42708 8.47461 8.36719 8.42773 8.32031C8.38086 8.27344 8.32096 8.25 8.24805 8.25H7.49805V4.25C7.49805 4.17708 7.47461 4.11719 7.42773 4.07031C7.38086 4.02344 7.32096 4 7.24805 4H4.74805C4.67513 4 4.61523 4.02344 4.56836 4.07031C4.52148 4.11719 4.49805 4.17708 4.49805 4.25V5.5C4.49805 5.57292 4.52148 5.63281 4.56836 5.67969C4.61523 5.72656 4.67513 5.75 4.74805 5.75H5.49805V8.25H4.74805C4.67513 8.25 4.61523 8.27344 4.56836 8.32031C4.52148 8.36719 4.49805 8.42708 4.49805 8.5V9.75C4.49805 9.82292 4.52148 9.88281 4.56836 9.92969C4.61523 9.97656 4.67513 10 4.74805 10H8.24805C8.32096 10 8.38086 9.97656 8.42773 9.92969C8.47461 9.88281 8.49805 9.82292 8.49805 9.75ZM7.49805 2.75V1.5C7.49805 1.42708 7.47461 1.36719 7.42773 1.32031C7.38086 1.27344 7.32096 1.25 7.24805 1.25H5.74805C5.67513 1.25 5.61523 1.27344 5.56836 1.32031C5.52148 1.36719 5.49805 1.42708 5.49805 1.5V2.75C5.49805 2.82292 5.52148 2.88281 5.56836 2.92969C5.61523 2.97656 5.67513 3 5.74805 3H7.24805C7.32096 3 7.38086 2.97656 7.42773 2.92969C7.47461 2.88281 7.49805 2.82292 7.49805 2.75ZM11.6934 2.99219C12.2298 3.90885 12.498 4.91146 12.498 6C12.498 7.08854 12.2298 8.09375 11.6934 9.01562C11.1569 9.93229 10.4277 10.6589 9.50586 11.1953C8.58919 11.7318 7.58659 12 6.49805 12C5.40951 12 4.4043 11.7318 3.48242 11.1953C2.56576 10.6589 1.83919 9.93229 1.30273 9.01562C0.766276 8.09375 0.498047 7.08854 0.498047 6C0.498047 4.91146 0.766276 3.90885 1.30273 2.99219C1.83919 2.07031 2.56576 1.34115 3.48242 0.804687C4.4043 0.268229 5.40951 -5.96046e-07 6.49805 -5.96046e-07C7.58659 -5.96046e-07 8.58919 0.268229 9.50586 0.804687C10.4277 1.34115 11.1569 2.07031 11.6934 2.99219Z" fill="#8B8881"/>
</svg>
