<svg width="10" height="12" viewBox="0 0 10 12" fill="none" xmlns="http://www.w3.org/2000/svg">
<path d="M10 9.92969C10 10.4974 9.83594 10.9844 9.50781 11.3906C9.1849 11.7969 8.79427 12 8.33594 12H1.66406C1.20573 12 0.8125 11.7969 0.484375 11.3906C0.161458 10.9844 0 10.4974 0 9.92969C0 9.48698 0.0208333 9.07031 0.0625 8.67969C0.109375 8.28385 0.192708 7.88802 0.3125 7.49219C0.432292 7.09115 0.583333 6.75 0.765625 6.46875C0.953125 6.18229 1.19792 5.95052 1.5 5.77344C1.80729 5.59115 2.15885 5.5 2.55469 5.5C3.23698 6.16667 4.05208 6.5 5 6.5C5.94792 6.5 6.76302 6.16667 7.44531 5.5C7.84115 5.5 8.1901 5.59115 8.49219 5.77344C8.79948 5.95052 9.04427 6.18229 9.22656 6.46875C9.41406 6.75 9.56771 7.09115 9.6875 7.49219C9.80729 7.88802 9.88802 8.28385 9.92969 8.67969C9.97656 9.07031 10 9.48698 10 9.92969ZM7.11719 0.882812C7.70573 1.46615 8 2.17187 8 3C8 3.82812 7.70573 4.53646 7.11719 5.125C6.53385 5.70833 5.82813 6 5 6C4.17188 6 3.46354 5.70833 2.875 5.125C2.29167 4.53646 2 3.82812 2 3C2 2.17187 2.29167 1.46615 2.875 0.882812C3.46354 0.29427 4.17188 -5.96046e-07 5 -5.96046e-07C5.82813 -5.96046e-07 6.53385 0.29427 7.11719 0.882812Z" fill="#1D1D18"/>
</svg>
