<svg width="104" height="46" viewBox="0 0 104 46" fill="none" xmlns="http://www.w3.org/2000/svg">
<path fill-rule="evenodd" clip-rule="evenodd" d="M91.2622 2.50259L95.4058 4.0611L96.5447 1.97061L91.2622 0L85.9798 1.97061L87.1112 4.0611L91.2622 2.50259ZM61.1187 28.0305H74.1637L74.6882 31.7695H61.1187H57.3873V6.85591L61.1187 6.33141V28.0305ZM78.6144 19.0467C78.6144 12.0259 84.3014 6.33141 91.3072 6.33141C98.3205 6.33141 104 12.0334 104 19.0542C104 26.0749 98.313 31.7695 91.3072 31.7695C84.3014 31.7695 78.6144 26.0674 78.6144 19.0467ZM82.3458 19.1066C82.3458 24.0893 86.3844 28.1354 91.3597 28.1354C96.3424 28.1354 100.373 24.0893 100.373 19.1066C100.373 14.1239 96.3424 10.0778 91.3597 10.0778C86.3769 10.0778 82.3458 14.1239 82.3458 19.1066ZM36.1527 6.33141V28.0305H49.1977L49.7222 31.7695H36.1527H32.4213V6.85591L36.1527 6.33141ZM9.64323 6.88588L10.4974 8.78905L0 31.7695H3.93372L5.67954 28.0305H19.1066L20.7775 31.7695H24.7112L13.5695 6.33141L9.64323 6.88588ZM7.23055 24.7112L12.5354 13.3522L17.6156 24.7112H7.23055ZM13.6369 41.5326H17.8329V38.3631L18.8818 38.2133V45.4063H17.8329V42.4692H13.6369V45.4063H12.5879V38.3631L13.6369 38.2133V41.5326ZM28.9222 38.2133C26.9366 38.2133 25.3256 39.8242 25.3256 41.8098C25.3256 43.7954 26.9366 45.4063 28.9222 45.4063C30.9078 45.4063 32.5187 43.7954 32.5187 41.8098C32.5187 39.8242 30.9078 38.2133 28.9222 38.2133ZM28.9372 44.3798C27.5285 44.3798 26.3821 43.2334 26.3821 41.8248C26.3821 40.4161 27.5285 39.2697 28.9372 39.2697C30.3458 39.2697 31.4922 40.4161 31.4922 41.8248C31.4922 43.2334 30.3458 44.3798 28.9372 44.3798ZM42.1095 44.3798C43.4732 44.3798 44.245 43.7205 44.245 42.5141V38.3631L45.2565 38.2133V42.5066C45.2565 44.3349 44.0951 45.3988 42.1095 45.3988C40.1239 45.3988 38.9625 44.3349 38.9625 42.5066V38.3556L39.9741 38.2133V42.5141C39.9741 43.7205 40.7458 44.3798 42.1095 44.3798ZM54.5476 41.1354C53.3862 41.1354 53.0939 40.7608 53.0939 40.3487C53.0939 39.7568 53.7308 39.2248 54.5026 39.2248C55.3718 39.2248 55.8888 39.4346 56.6231 40.034L57.245 39.2997C56.4357 38.513 55.5366 38.2207 54.5026 38.2207C53.0415 38.2207 51.9925 39.2548 51.9925 40.3637C51.9925 41.5251 52.8767 42.132 54.5026 42.132C55.4916 42.132 56.5182 42.132 56.5182 43.1735C56.5182 44.0277 55.5066 44.4098 54.5026 44.4098C53.4311 44.4098 52.7643 43.7654 52.4121 43.3383L51.7003 44.0052C52.3821 44.8968 53.4611 45.4063 54.5026 45.4063C56.2259 45.4063 57.5447 44.5447 57.5447 43.1735C57.5447 41.8772 56.9303 41.1354 54.5476 41.1354ZM65.1873 45.4063H63.9885V38.3631L65.1873 38.2133V45.4063ZM77.1908 43.7429L72.6277 38.2133L71.4813 38.3706L72.1406 39.1798V45.4063H73.1746V40.4536L77.1908 45.4063H78.2248V38.2133L77.1908 38.3631V43.7429ZM90.2582 42.4991H89.0594L88.917 41.5101H91.2622V44.17C90.5654 44.9418 89.5389 45.4063 88.415 45.4063C86.302 45.4063 84.6686 43.7954 84.6686 41.7349C84.6686 39.7193 86.4219 38.2133 88.4225 38.2133C89.4715 38.2133 90.4231 38.6254 91.1049 39.2922L90.453 40.0415C89.9435 39.532 89.2092 39.2173 88.415 39.2173C86.8715 39.2173 85.6726 40.3112 85.6726 41.8473C85.6726 43.3233 86.9764 44.4023 88.43 44.4023C89.1268 44.4023 89.7712 44.155 90.2582 43.7429V42.4991Z" fill="white"/>
</svg>
