<svg width="18" height="19" viewBox="0 0 18 19" fill="none" xmlns="http://www.w3.org/2000/svg">
<path d="M5.50446 1.2846C6.61607 0.809151 7.78125 0.571427 9 0.571427C10.2188 0.571427 11.3839 0.809151 12.4955 1.2846C13.6071 1.76004 14.5647 2.39955 15.3683 3.20312C16.1719 4.0067 16.8114 4.96429 17.2868 6.07589C17.7623 7.1875 18 8.35268 18 9.57143C18 10.7835 17.7623 11.9453 17.2868 13.0569C16.8181 14.1685 16.1819 15.1261 15.3783 15.9297C14.5748 16.7333 13.6172 17.3728 12.5056 17.8482C11.394 18.3304 10.2254 18.5714 9 18.5714C7.77455 18.5714 6.60603 18.3337 5.49442 17.8583C4.38281 17.3828 3.42522 16.7433 2.62165 15.9397C1.82478 15.1295 1.18862 14.1719 0.71317 13.067C0.237723 11.9554 0 10.7902 0 9.57143C0 8.35268 0.237723 7.1875 0.71317 6.07589C1.18862 4.96429 1.82813 4.0067 2.6317 3.20312C3.43527 2.39955 4.39286 1.76004 5.50446 1.2846ZM15.2176 14.1417C16.2154 12.769 16.7143 11.2455 16.7143 9.57143C16.7143 8.52679 16.51 7.52902 16.1016 6.57812C15.6931 5.62723 15.144 4.80692 14.4542 4.11719C13.7645 3.42745 12.9442 2.87835 11.9933 2.46987C11.0424 2.06138 10.0446 1.85714 9 1.85714C7.95536 1.85714 6.95759 2.06138 6.0067 2.46987C5.0558 2.87835 4.23549 3.42745 3.54576 4.11719C2.85603 4.80692 2.30692 5.62723 1.89844 6.57812C1.48996 7.52902 1.28571 8.52679 1.28571 9.57143C1.28571 11.2455 1.7846 12.769 2.78237 14.1417C3.22433 11.952 4.24888 10.8571 5.85603 10.8571C6.73326 11.7143 7.78125 12.1429 9 12.1429C10.2188 12.1429 11.2667 11.7143 12.144 10.8571C13.7511 10.8571 14.7757 11.952 15.2176 14.1417ZM11.7221 10.375C12.4788 9.6183 12.8571 8.70759 12.8571 7.64286C12.8571 6.57812 12.4788 5.67076 11.7221 4.92076C10.9721 4.16406 10.0647 3.78571 9 3.78571C7.93527 3.78571 7.02455 4.16406 6.26786 4.92076C5.51786 5.67076 5.14286 6.57812 5.14286 7.64286C5.14286 8.70759 5.51786 9.6183 6.26786 10.375C7.02455 11.125 7.93527 11.5 9 11.5C10.0647 11.5 10.9721 11.125 11.7221 10.375Z" fill="white"/>
</svg>
