<svg width="6" height="9" viewBox="0 0 6 9" fill="none" xmlns="http://www.w3.org/2000/svg">
<path d="M5.06836 4.32031C5.12044 4.3724 5.14648 4.43229 5.14648 4.5C5.14648 4.56771 5.12044 4.6276 5.06836 4.67969L1.42773 8.32031C1.37565 8.3724 1.31576 8.39844 1.24805 8.39844C1.18034 8.39844 1.12044 8.3724 1.06836 8.32031L0.677734 7.92969C0.625651 7.8776 0.599609 7.81771 0.599609 7.75C0.599609 7.68229 0.625651 7.6224 0.677734 7.57031L3.74805 4.5L0.677734 1.42969C0.625651 1.3776 0.599609 1.31771 0.599609 1.25C0.599609 1.18229 0.625651 1.1224 0.677734 1.07031L1.06836 0.679687C1.12044 0.627603 1.18034 0.601562 1.24805 0.601562C1.31576 0.601562 1.37565 0.627603 1.42773 0.679687L5.06836 4.32031Z" fill="#1D1D18"/>
</svg>
