<svg width="16" height="19" viewBox="0 0 16 19" fill="none" xmlns="http://www.w3.org/2000/svg">
<path d="M12.0636 8.44643C12.3783 8.54018 12.6763 8.66741 12.9576 8.82812C13.2455 8.98884 13.5435 9.23326 13.8516 9.56138C14.1663 9.88951 14.4342 10.2779 14.6551 10.7266C14.8761 11.1685 15.0603 11.7444 15.2076 12.4542C15.3549 13.1574 15.4286 13.9475 15.4286 14.8248C15.4286 15.856 15.0938 16.7366 14.4241 17.4665C13.7545 18.2031 12.9475 18.5714 12.0033 18.5714H3.42522C2.48103 18.5714 1.67411 18.2031 1.00446 17.4665C0.334821 16.7366 0 15.856 0 14.8248C0 13.9475 0.0736607 13.1574 0.220982 12.4542C0.368304 11.7444 0.552455 11.1685 0.773438 10.7266C0.99442 10.2779 1.25893 9.88951 1.56696 9.56138C1.8817 9.23326 2.17969 8.98884 2.46094 8.82812C2.74888 8.66741 3.05022 8.54018 3.36496 8.44643C2.83594 7.60937 2.57143 6.69866 2.57143 5.71429C2.57143 5.01786 2.70536 4.35491 2.97321 3.72545C3.24777 3.08928 3.61607 2.54018 4.07813 2.07812C4.54018 1.61607 5.08594 1.25112 5.7154 0.983258C6.35156 0.708704 7.01786 0.571427 7.71429 0.571427C8.41071 0.571427 9.07366 0.708704 9.70312 0.983258C10.3393 1.25112 10.8884 1.61607 11.3504 2.07812C11.8125 2.54018 12.1775 3.08928 12.4453 3.72545C12.7199 4.35491 12.8571 5.01786 12.8571 5.71429C12.8571 6.69866 12.5926 7.60937 12.0636 8.44643ZM10.4364 2.99219C9.68638 2.23549 8.77902 1.85714 7.71429 1.85714C6.64955 1.85714 5.73884 2.23549 4.98214 2.99219C4.23214 3.74219 3.85714 4.64955 3.85714 5.71429C3.85714 6.77902 4.23214 7.68973 4.98214 8.44643C5.73884 9.19643 6.64955 9.57143 7.71429 9.57143C8.77902 9.57143 9.68638 9.19643 10.4364 8.44643C11.1931 7.68973 11.5714 6.77902 11.5714 5.71429C11.5714 4.64955 11.1931 3.74219 10.4364 2.99219ZM12.0033 17.2857C12.5926 17.2857 13.0949 17.0446 13.51 16.5625C13.9319 16.0871 14.1429 15.5078 14.1429 14.8248C14.1429 13.2243 13.8783 11.9621 13.3493 11.0379C12.827 10.1138 12.0737 9.62835 11.0893 9.58147C10.1183 10.4319 8.9933 10.8571 7.71429 10.8571C6.43527 10.8571 5.31027 10.4319 4.33929 9.58147C3.35491 9.62835 2.59821 10.1138 2.0692 11.0379C1.54688 11.9621 1.28571 13.2243 1.28571 14.8248C1.28571 15.5078 1.4933 16.0871 1.90848 16.5625C2.33036 17.0446 2.83594 17.2857 3.42522 17.2857H12.0033Z" fill="#8B8881"/>
</svg>
