<svg width="16" height="16" viewBox="0 0 16 16" fill="none" xmlns="http://www.w3.org/2000/svg">
<path d="M15.5312 13.1876H14.5938C12.5034 13.1876 12.0434 7.93071 8.4375 6.82727V10.0982C10.0825 11.7632 10.9131 16.0001 14.59 16.0001H15.5312C15.79 16.0001 16 15.7901 16 15.5313V13.6563C16 13.3976 15.79 13.1876 15.5312 13.1876Z" fill="black"/>
<path d="M4.6875 6.62499C4.6875 6.09864 4.25131 5.67208 3.72147 5.68793C3.21162 5.70315 2.8125 6.13489 2.8125 6.64496V9.43748H4.6875V6.62499Z" fill="black"/>
<path d="M0 15.5312C0 15.7901 0.209875 16 0.46875 16C0.727625 16 0.9375 15.7901 0.9375 15.5312V9.4375H1.875V6.6535C1.875 5.62469 2.69187 4.76609 3.72056 4.75022C4.76772 4.73406 5.625 5.58144 5.625 6.625V9.4375H6.5625V15.5312C6.5625 15.7901 6.77238 16 7.03125 16C7.29012 16 7.5 15.7901 7.5 15.5312C7.5 15.0107 7.5 4.31862 7.5 3.8125H0V15.5312Z" fill="black"/>
<path d="M4.05891 0.11625C3.88234 -0.03875 3.61797 -0.03875 3.44141 0.11625L0.292969 2.875H7.20734L4.05891 0.11625Z" fill="black"/>
<path d="M4.6875 10.375H2.8125V9.4375H1.875V15.5312C1.875 15.79 2.085 16 2.34375 16C2.6025 16 2.8125 15.79 2.8125 15.5312V15.0625H4.6875V15.5312C4.6875 15.79 4.8975 16 5.15625 16C5.415 16 5.625 15.79 5.625 15.5312V9.4375H4.6875V10.375ZM4.6875 11.3125V12.25H2.8125V11.3125H4.6875ZM2.8125 14.125V13.1875H4.6875V14.125H2.8125Z" fill="black"/>
</svg>
