<svg width="16" height="14" viewBox="0 0 16 14" fill="none" xmlns="http://www.w3.org/2000/svg">
<path d="M1.66733 9.33334H14.334C14.5182 9.33334 14.6673 9.18425 14.6673 9C14.6673 8.81575 14.5182 8.66666 14.334 8.66666H13.9847C13.8306 5.56488 11.5591 3.0475 8.66733 2.70816V2H9.33398C9.51823 2 9.66733 1.85091 9.66733 1.66666V1.33334C9.66733 0.598 9.06936 0 8.33398 0H7.66733C6.93198 0 6.33398 0.597969 6.33398 1.33334V1.66669C6.33398 1.85094 6.48308 2.00003 6.66733 2.00003H7.33398V2.70819C4.44223 3.04756 2.1707 5.56491 2.01667 8.66669H1.66733C1.48308 8.66669 1.33398 8.81578 1.33398 9.00003C1.33402 9.18428 1.48311 9.33334 1.66733 9.33334ZM3.97692 6.50425C4.81189 5.00784 6.35389 4.07847 8.00067 4.07847C8.18492 4.07847 8.33402 4.22756 8.33402 4.41181C8.33402 4.59606 8.18492 4.74512 8.00067 4.74512C6.59508 4.74512 5.27639 5.54362 4.55895 6.82912C4.49808 6.9385 4.38448 7.00003 4.26761 7.00003C4.21261 7.00003 4.15692 6.98634 4.10548 6.95772C3.94467 6.86819 3.88708 6.66506 3.97692 6.50425Z" fill="black"/>
<path d="M14.6667 10.6667V10.3333C14.6667 10.1491 14.5176 10 14.3333 10H1.66666C1.48241 10 1.33331 10.1491 1.33331 10.3333V10.6667C0.597969 10.6667 0 11.2647 0 12V13C0 13.1843 0.149094 13.3334 0.333344 13.3334H15.6667C15.8509 13.3334 16 13.1843 16 13V12C16 11.2647 15.402 10.6667 14.6667 10.6667Z" fill="black"/>
</svg>
