<svg width="15" height="14" viewBox="0 0 15 14" fill="none" xmlns="http://www.w3.org/2000/svg">
<path d="M11.1953 1.94531C11.2474 1.9974 11.2734 2.05729 11.2734 2.125C11.2734 2.19271 11.2474 2.2526 11.1953 2.30469L6.30469 7.19531C6.2526 7.2474 6.19271 7.27344 6.125 7.27344C6.05729 7.27344 5.9974 7.2474 5.94531 7.19531L5.30469 6.55469C5.2526 6.5026 5.22656 6.44271 5.22656 6.375C5.22656 6.30729 5.2526 6.2474 5.30469 6.19531L5.64844 5.85156C5.27344 5.3776 5.0599 4.83854 5.00781 4.23438C4.96094 3.63021 5.08333 3.07031 5.375 2.55469C4.98958 2.1849 4.53125 2 4 2C3.44792 2 2.97656 2.19531 2.58594 2.58594C2.19531 2.97656 2 3.44792 2 4V14H0V4C0 3.45833 0.104167 2.94271 0.3125 2.45312C0.526042 1.95833 0.8125 1.53125 1.17188 1.17187C1.53125 0.8125 1.95573 0.528645 2.44531 0.320312C2.9401 0.10677 3.45833 -9.53674e-07 4 -9.53674e-07C4.55208 -9.53674e-07 5.07552 0.10677 5.57031 0.320312C6.0651 0.533854 6.4974 0.833333 6.86719 1.21875C7.35677 1.01562 7.86979 0.953124 8.40625 1.03125C8.94271 1.10417 9.42448 1.3099 9.85156 1.64844L10.1953 1.30469C10.2474 1.2526 10.3073 1.22656 10.375 1.22656C10.4427 1.22656 10.5026 1.2526 10.5547 1.30469L11.1953 1.94531ZM10.1484 4.14844C10.2474 4.04948 10.3646 4 10.5 4C10.6354 4 10.7526 4.04948 10.8516 4.14844C10.9505 4.2474 11 4.36458 11 4.5C11 4.63542 10.9505 4.7526 10.8516 4.85156C10.7526 4.95052 10.6354 5 10.5 5C10.3646 5 10.2474 4.95052 10.1484 4.85156C10.0495 4.7526 10 4.63542 10 4.5C10 4.36458 10.0495 4.2474 10.1484 4.14844ZM12.8516 4.85156C12.7526 4.95052 12.6354 5 12.5 5C12.3646 5 12.2474 4.95052 12.1484 4.85156C12.0495 4.7526 12 4.63542 12 4.5C12 4.36458 12.0495 4.2474 12.1484 4.14844C12.2474 4.04948 12.3646 4 12.5 4C12.6354 4 12.7526 4.04948 12.8516 4.14844C12.9505 4.2474 13 4.36458 13 4.5C13 4.63542 12.9505 4.7526 12.8516 4.85156ZM14.1484 4.14844C14.2474 4.04948 14.3646 4 14.5 4C14.6354 4 14.7526 4.04948 14.8516 4.14844C14.9505 4.2474 15 4.36458 15 4.5C15 4.63542 14.9505 4.7526 14.8516 4.85156C14.7526 4.95052 14.6354 5 14.5 5C14.3646 5 14.2474 4.95052 14.1484 4.85156C14.0495 4.7526 14 4.63542 14 4.5C14 4.36458 14.0495 4.2474 14.1484 4.14844ZM9.14844 5.14844C9.2474 5.04948 9.36458 5 9.5 5C9.63542 5 9.7526 5.04948 9.85156 5.14844C9.95052 5.2474 10 5.36458 10 5.5C10 5.63542 9.95052 5.7526 9.85156 5.85156C9.7526 5.95052 9.63542 6 9.5 6C9.36458 6 9.2474 5.95052 9.14844 5.85156C9.04948 5.7526 9 5.63542 9 5.5C9 5.36458 9.04948 5.2474 9.14844 5.14844ZM11.1484 5.85156C11.0495 5.7526 11 5.63542 11 5.5C11 5.36458 11.0495 5.2474 11.1484 5.14844C11.2474 5.04948 11.3646 5 11.5 5C11.6354 5 11.7526 5.04948 11.8516 5.14844C11.9505 5.2474 12 5.36458 12 5.5C12 5.63542 11.9505 5.7526 11.8516 5.85156C11.7526 5.95052 11.6354 6 11.5 6C11.3646 6 11.2474 5.95052 11.1484 5.85156ZM13.1484 5.14844C13.2474 5.04948 13.3646 5 13.5 5C13.6354 5 13.7526 5.04948 13.8516 5.14844C13.9505 5.2474 14 5.36458 14 5.5C14 5.63542 13.9505 5.7526 13.8516 5.85156C13.7526 5.95052 13.6354 6 13.5 6C13.3646 6 13.2474 5.95052 13.1484 5.85156C13.0495 5.7526 13 5.63542 13 5.5C13 5.36458 13.0495 5.2474 13.1484 5.14844ZM8.14844 6.14844C8.2474 6.04948 8.36458 6 8.5 6C8.63542 6 8.7526 6.04948 8.85156 6.14844C8.95052 6.2474 9 6.36458 9 6.5C9 6.63542 8.95052 6.7526 8.85156 6.85156C8.7526 6.95052 8.63542 7 8.5 7C8.36458 7 8.2474 6.95052 8.14844 6.85156C8.04948 6.7526 8 6.63542 8 6.5C8 6.36458 8.04948 6.2474 8.14844 6.14844ZM10.8516 6.85156C10.7526 6.95052 10.6354 7 10.5 7C10.3646 7 10.2474 6.95052 10.1484 6.85156C10.0495 6.7526 10 6.63542 10 6.5C10 6.36458 10.0495 6.2474 10.1484 6.14844C10.2474 6.04948 10.3646 6 10.5 6C10.6354 6 10.7526 6.04948 10.8516 6.14844C10.9505 6.2474 11 6.36458 11 6.5C11 6.63542 10.9505 6.7526 10.8516 6.85156ZM12.1484 6.14844C12.2474 6.04948 12.3646 6 12.5 6C12.6354 6 12.7526 6.04948 12.8516 6.14844C12.9505 6.2474 13 6.36458 13 6.5C13 6.63542 12.9505 6.7526 12.8516 6.85156C12.7526 6.95052 12.6354 7 12.5 7C12.3646 7 12.2474 6.95052 12.1484 6.85156C12.0495 6.7526 12 6.63542 12 6.5C12 6.36458 12.0495 6.2474 12.1484 6.14844ZM9.85156 7.85156C9.7526 7.95052 9.63542 8 9.5 8C9.36458 8 9.2474 7.95052 9.14844 7.85156C9.04948 7.7526 9 7.63542 9 7.5C9 7.36458 9.04948 7.2474 9.14844 7.14844C9.2474 7.04948 9.36458 7 9.5 7C9.63542 7 9.7526 7.04948 9.85156 7.14844C9.95052 7.2474 10 7.36458 10 7.5C10 7.63542 9.95052 7.7526 9.85156 7.85156ZM11.1484 7.14844C11.2474 7.04948 11.3646 7 11.5 7C11.6354 7 11.7526 7.04948 11.8516 7.14844C11.9505 7.2474 12 7.36458 12 7.5C12 7.63542 11.9505 7.7526 11.8516 7.85156C11.7526 7.95052 11.6354 8 11.5 8C11.3646 8 11.2474 7.95052 11.1484 7.85156C11.0495 7.7526 11 7.63542 11 7.5C11 7.36458 11.0495 7.2474 11.1484 7.14844ZM8.14844 8.14844C8.2474 8.04948 8.36458 8 8.5 8C8.63542 8 8.7526 8.04948 8.85156 8.14844C8.95052 8.2474 9 8.36458 9 8.5C9 8.63542 8.95052 8.7526 8.85156 8.85156C8.7526 8.95052 8.63542 9 8.5 9C8.36458 9 8.2474 8.95052 8.14844 8.85156C8.04948 8.7526 8 8.63542 8 8.5C8 8.36458 8.04948 8.2474 8.14844 8.14844ZM10.1484 8.14844C10.2474 8.04948 10.3646 8 10.5 8C10.6354 8 10.7526 8.04948 10.8516 8.14844C10.9505 8.2474 11 8.36458 11 8.5C11 8.63542 10.9505 8.7526 10.8516 8.85156C10.7526 8.95052 10.6354 9 10.5 9C10.3646 9 10.2474 8.95052 10.1484 8.85156C10.0495 8.7526 10 8.63542 10 8.5C10 8.36458 10.0495 8.2474 10.1484 8.14844ZM9.14844 9.14844C9.2474 9.04948 9.36458 9 9.5 9C9.63542 9 9.7526 9.04948 9.85156 9.14844C9.95052 9.2474 10 9.36458 10 9.5C10 9.63542 9.95052 9.7526 9.85156 9.85156C9.7526 9.95052 9.63542 10 9.5 10C9.36458 10 9.2474 9.95052 9.14844 9.85156C9.04948 9.7526 9 9.63542 9 9.5C9 9.36458 9.04948 9.2474 9.14844 9.14844ZM8.14844 10.1484C8.2474 10.0495 8.36458 10 8.5 10C8.63542 10 8.7526 10.0495 8.85156 10.1484C8.95052 10.2474 9 10.3646 9 10.5C9 10.6354 8.95052 10.7526 8.85156 10.8516C8.7526 10.9505 8.63542 11 8.5 11C8.36458 11 8.2474 10.9505 8.14844 10.8516C8.04948 10.7526 8 10.6354 8 10.5C8 10.3646 8.04948 10.2474 8.14844 10.1484Z" fill="#8B8881"/>
</svg>
