<svg width="12" height="18" viewBox="0 0 12 18" fill="none" xmlns="http://www.w3.org/2000/svg">
<path d="M0.88058 9.38058L8.33371 16.8337C8.46094 16.9609 8.61161 17.0246 8.78571 17.0246C8.95982 17.0246 9.11049 16.9609 9.23772 16.8337L10.9051 15.1663C11.0324 15.0391 11.096 14.8884 11.096 14.7143C11.096 14.5402 11.0324 14.3895 10.9051 14.2623L5.57143 8.92857L10.9051 3.59487C11.0324 3.46763 11.096 3.31696 11.096 3.14286C11.096 2.96875 11.0324 2.81808 10.9051 2.69085L9.23772 1.02344C9.11049 0.896205 8.95982 0.832589 8.78571 0.832589C8.61161 0.832589 8.46094 0.896205 8.33371 1.02344L0.88058 8.47656C0.753348 8.60379 0.689732 8.75446 0.689732 8.92857C0.689732 9.10268 0.753348 9.25335 0.88058 9.38058Z" fill="white"/>
</svg>
