<svg width="6" height="11" viewBox="0 0 6 11" fill="none" xmlns="http://www.w3.org/2000/svg">
<path d="M5.87612 6.01674C5.94308 5.94978 5.97656 5.87277 5.97656 5.78571C5.97656 5.69866 5.94308 5.62165 5.87612 5.55469L1.19531 0.873884C1.12835 0.80692 1.05134 0.773438 0.964286 0.773438C0.877232 0.773438 0.800223 0.80692 0.733259 0.873884L0.231027 1.37612C0.164063 1.44308 0.13058 1.52009 0.13058 1.60714C0.13058 1.6942 0.164063 1.77121 0.231027 1.83817L4.17857 5.78571L0.231027 9.73326C0.164063 9.80022 0.13058 9.87723 0.13058 9.96429C0.13058 10.0513 0.164063 10.1283 0.231027 10.1953L0.733259 10.6975C0.800223 10.7645 0.877232 10.798 0.964286 10.798C1.05134 10.798 1.12835 10.7645 1.19531 10.6975L5.87612 6.01674Z" fill="#1D1D18"/>
</svg>
