<svg width="16" height="10" viewBox="0 0 16 10" fill="none" xmlns="http://www.w3.org/2000/svg">
<path d="M2 6H15.5C15.6354 6 15.7526 6.04948 15.8516 6.14844C15.9505 6.2474 16 6.36458 16 6.5V10H14V8H2V10H0V0.5C0 0.364583 0.0494792 0.247396 0.148438 0.148437C0.247396 0.0494788 0.364583 -2.38419e-07 0.5 -2.38419e-07H1.5C1.63542 -2.38419e-07 1.7526 0.0494788 1.85156 0.148437C1.95052 0.247396 2 0.364583 2 0.5V6ZM5.91406 4.91406C6.30469 4.52344 6.5 4.05208 6.5 3.5C6.5 2.94792 6.30469 2.47656 5.91406 2.08594C5.52344 1.69531 5.05208 1.5 4.5 1.5C3.94792 1.5 3.47656 1.69531 3.08594 2.08594C2.69531 2.47656 2.5 2.94792 2.5 3.5C2.5 4.05208 2.69531 4.52344 3.08594 4.91406C3.47656 5.30469 3.94792 5.5 4.5 5.5C5.05208 5.5 5.52344 5.30469 5.91406 4.91406ZM16 5.5V5C16 4.17187 15.7057 3.46615 15.1172 2.88281C14.5339 2.29427 13.8281 2 13 2H7.5C7.36458 2 7.2474 2.04948 7.14844 2.14844C7.04948 2.2474 7 2.36458 7 2.5V5.5H16Z" fill="#1D1D18"/>
</svg>
