<svg width="22" height="18" viewBox="0 0 22 18" fill="none" xmlns="http://www.w3.org/2000/svg">
<path opacity="0.4" d="M18.7282 10.7143V17.1429C18.7282 17.375 18.6434 17.5759 18.4738 17.7455C18.3041 17.9152 18.1032 18 17.8711 18H12.7282V12.8571H9.29967V18H4.15681C3.92467 18 3.72377 17.9152 3.55413 17.7455C3.38449 17.5759 3.29967 17.375 3.29967 17.1429V10.7143C3.29967 10.7054 3.29967 10.692 3.29967 10.6741C3.30859 10.6562 3.31306 10.6429 3.31306 10.6339L11.014 4.28571L18.7148 10.6339C18.7238 10.6518 18.7282 10.6786 18.7282 10.7143ZM21.7148 9.79018L20.8845 10.7812C20.8131 10.8616 20.7193 10.9107 20.6032 10.9286H20.5631C20.447 10.9286 20.3532 10.8973 20.2818 10.8348L11.014 3.10714L1.74609 10.8348C1.63895 10.9062 1.53181 10.9375 1.42467 10.9286C1.30859 10.9107 1.21484 10.8616 1.14342 10.7812L0.313058 9.79018C0.241629 9.70089 0.210379 9.59821 0.219308 9.48214C0.228237 9.35714 0.277344 9.25893 0.366629 9.1875L9.99609 1.16518C10.2818 0.933035 10.6211 0.816964 11.014 0.816964C11.4068 0.816964 11.7461 0.933035 12.0318 1.16518L15.2997 3.89732V1.28571C15.2997 1.16071 15.3398 1.05803 15.4202 0.977677C15.5006 0.897321 15.6032 0.857142 15.7282 0.857142H18.2997C18.4247 0.857142 18.5273 0.897321 18.6077 0.977677C18.6881 1.05803 18.7282 1.16071 18.7282 1.28571V6.75L21.6613 9.1875C21.7506 9.25893 21.7997 9.35714 21.8086 9.48214C21.8175 9.59821 21.7863 9.70089 21.7148 9.79018Z" fill="#8B8881"/>
</svg>
