<svg width="46" height="42" viewBox="0 0 46 42" fill="none" xmlns="http://www.w3.org/2000/svg">
<path opacity="0.4" d="M33.5889 5.83594C33.7451 5.99219 33.8232 6.17187 33.8232 6.375C33.8232 6.57812 33.7451 6.75781 33.5889 6.91406L18.917 21.5859C18.7607 21.7422 18.5811 21.8203 18.3779 21.8203C18.1748 21.8203 17.9951 21.7422 17.8389 21.5859L15.917 19.6641C15.7607 19.5078 15.6826 19.3281 15.6826 19.125C15.6826 18.9219 15.7607 18.7422 15.917 18.5859L16.9482 17.5547C15.8232 16.1328 15.1826 14.5156 15.0264 12.7031C14.8857 10.8906 15.2529 9.21094 16.1279 7.66406C14.9717 6.55469 13.5967 6 12.0029 6C10.3467 6 8.93262 6.58594 7.76074 7.75781C6.58887 8.92969 6.00293 10.3437 6.00293 12V42H0.00292969V12C0.00292969 10.375 0.31543 8.82812 0.94043 7.35937C1.58105 5.875 2.44043 4.59375 3.51855 3.51562C4.59668 2.4375 5.87012 1.58594 7.33887 0.960935C8.82324 0.32031 10.3779 -2.86102e-06 12.0029 -2.86102e-06C13.6592 -2.86102e-06 15.2295 0.32031 16.7139 0.960935C18.1982 1.60156 19.4951 2.5 20.6045 3.65625C22.0732 3.04687 23.6123 2.85937 25.2217 3.09375C26.8311 3.3125 28.2764 3.92969 29.5576 4.94531L30.5889 3.91406C30.7451 3.75781 30.9248 3.67968 31.1279 3.67968C31.3311 3.67968 31.5107 3.75781 31.667 3.91406L33.5889 5.83594ZM30.4482 12.4453C30.7451 12.1484 31.0967 12 31.5029 12C31.9092 12 32.2607 12.1484 32.5576 12.4453C32.8545 12.7422 33.0029 13.0937 33.0029 13.5C33.0029 13.9062 32.8545 14.2578 32.5576 14.5547C32.2607 14.8516 31.9092 15 31.5029 15C31.0967 15 30.7451 14.8516 30.4482 14.5547C30.1514 14.2578 30.0029 13.9062 30.0029 13.5C30.0029 13.0937 30.1514 12.7422 30.4482 12.4453ZM38.5576 14.5547C38.2607 14.8516 37.9092 15 37.5029 15C37.0967 15 36.7451 14.8516 36.4482 14.5547C36.1514 14.2578 36.0029 13.9062 36.0029 13.5C36.0029 13.0937 36.1514 12.7422 36.4482 12.4453C36.7451 12.1484 37.0967 12 37.5029 12C37.9092 12 38.2607 12.1484 38.5576 12.4453C38.8545 12.7422 39.0029 13.0937 39.0029 13.5C39.0029 13.9062 38.8545 14.2578 38.5576 14.5547ZM42.4482 12.4453C42.7451 12.1484 43.0967 12 43.5029 12C43.9092 12 44.2607 12.1484 44.5576 12.4453C44.8545 12.7422 45.0029 13.0937 45.0029 13.5C45.0029 13.9062 44.8545 14.2578 44.5576 14.5547C44.2607 14.8516 43.9092 15 43.5029 15C43.0967 15 42.7451 14.8516 42.4482 14.5547C42.1514 14.2578 42.0029 13.9062 42.0029 13.5C42.0029 13.0937 42.1514 12.7422 42.4482 12.4453ZM27.4482 15.4453C27.7451 15.1484 28.0967 15 28.5029 15C28.9092 15 29.2607 15.1484 29.5576 15.4453C29.8545 15.7422 30.0029 16.0937 30.0029 16.5C30.0029 16.9062 29.8545 17.2578 29.5576 17.5547C29.2607 17.8516 28.9092 18 28.5029 18C28.0967 18 27.7451 17.8516 27.4482 17.5547C27.1514 17.2578 27.0029 16.9062 27.0029 16.5C27.0029 16.0937 27.1514 15.7422 27.4482 15.4453ZM33.4482 17.5547C33.1514 17.2578 33.0029 16.9062 33.0029 16.5C33.0029 16.0937 33.1514 15.7422 33.4482 15.4453C33.7451 15.1484 34.0967 15 34.5029 15C34.9092 15 35.2607 15.1484 35.5576 15.4453C35.8545 15.7422 36.0029 16.0937 36.0029 16.5C36.0029 16.9062 35.8545 17.2578 35.5576 17.5547C35.2607 17.8516 34.9092 18 34.5029 18C34.0967 18 33.7451 17.8516 33.4482 17.5547ZM39.4482 15.4453C39.7451 15.1484 40.0967 15 40.5029 15C40.9092 15 41.2607 15.1484 41.5576 15.4453C41.8545 15.7422 42.0029 16.0937 42.0029 16.5C42.0029 16.9062 41.8545 17.2578 41.5576 17.5547C41.2607 17.8516 40.9092 18 40.5029 18C40.0967 18 39.7451 17.8516 39.4482 17.5547C39.1514 17.2578 39.0029 16.9062 39.0029 16.5C39.0029 16.0937 39.1514 15.7422 39.4482 15.4453ZM24.4482 18.4453C24.7451 18.1484 25.0967 18 25.5029 18C25.9092 18 26.2607 18.1484 26.5576 18.4453C26.8545 18.7422 27.0029 19.0937 27.0029 19.5C27.0029 19.9062 26.8545 20.2578 26.5576 20.5547C26.2607 20.8516 25.9092 21 25.5029 21C25.0967 21 24.7451 20.8516 24.4482 20.5547C24.1514 20.2578 24.0029 19.9062 24.0029 19.5C24.0029 19.0937 24.1514 18.7422 24.4482 18.4453ZM32.5576 20.5547C32.2607 20.8516 31.9092 21 31.5029 21C31.0967 21 30.7451 20.8516 30.4482 20.5547C30.1514 20.2578 30.0029 19.9062 30.0029 19.5C30.0029 19.0937 30.1514 18.7422 30.4482 18.4453C30.7451 18.1484 31.0967 18 31.5029 18C31.9092 18 32.2607 18.1484 32.5576 18.4453C32.8545 18.7422 33.0029 19.0937 33.0029 19.5C33.0029 19.9062 32.8545 20.2578 32.5576 20.5547ZM36.4482 18.4453C36.7451 18.1484 37.0967 18 37.5029 18C37.9092 18 38.2607 18.1484 38.5576 18.4453C38.8545 18.7422 39.0029 19.0937 39.0029 19.5C39.0029 19.9062 38.8545 20.2578 38.5576 20.5547C38.2607 20.8516 37.9092 21 37.5029 21C37.0967 21 36.7451 20.8516 36.4482 20.5547C36.1514 20.2578 36.0029 19.9062 36.0029 19.5C36.0029 19.0937 36.1514 18.7422 36.4482 18.4453ZM29.5576 23.5547C29.2607 23.8516 28.9092 24 28.5029 24C28.0967 24 27.7451 23.8516 27.4482 23.5547C27.1514 23.2578 27.0029 22.9062 27.0029 22.5C27.0029 22.0937 27.1514 21.7422 27.4482 21.4453C27.7451 21.1484 28.0967 21 28.5029 21C28.9092 21 29.2607 21.1484 29.5576 21.4453C29.8545 21.7422 30.0029 22.0937 30.0029 22.5C30.0029 22.9062 29.8545 23.2578 29.5576 23.5547ZM33.4482 21.4453C33.7451 21.1484 34.0967 21 34.5029 21C34.9092 21 35.2607 21.1484 35.5576 21.4453C35.8545 21.7422 36.0029 22.0937 36.0029 22.5C36.0029 22.9062 35.8545 23.2578 35.5576 23.5547C35.2607 23.8516 34.9092 24 34.5029 24C34.0967 24 33.7451 23.8516 33.4482 23.5547C33.1514 23.2578 33.0029 22.9062 33.0029 22.5C33.0029 22.0937 33.1514 21.7422 33.4482 21.4453ZM24.4482 24.4453C24.7451 24.1484 25.0967 24 25.5029 24C25.9092 24 26.2607 24.1484 26.5576 24.4453C26.8545 24.7422 27.0029 25.0937 27.0029 25.5C27.0029 25.9062 26.8545 26.2578 26.5576 26.5547C26.2607 26.8516 25.9092 27 25.5029 27C25.0967 27 24.7451 26.8516 24.4482 26.5547C24.1514 26.2578 24.0029 25.9062 24.0029 25.5C24.0029 25.0937 24.1514 24.7422 24.4482 24.4453ZM30.4482 24.4453C30.7451 24.1484 31.0967 24 31.5029 24C31.9092 24 32.2607 24.1484 32.5576 24.4453C32.8545 24.7422 33.0029 25.0937 33.0029 25.5C33.0029 25.9062 32.8545 26.2578 32.5576 26.5547C32.2607 26.8516 31.9092 27 31.5029 27C31.0967 27 30.7451 26.8516 30.4482 26.5547C30.1514 26.2578 30.0029 25.9062 30.0029 25.5C30.0029 25.0937 30.1514 24.7422 30.4482 24.4453ZM27.4482 27.4453C27.7451 27.1484 28.0967 27 28.5029 27C28.9092 27 29.2607 27.1484 29.5576 27.4453C29.8545 27.7422 30.0029 28.0937 30.0029 28.5C30.0029 28.9062 29.8545 29.2578 29.5576 29.5547C29.2607 29.8516 28.9092 30 28.5029 30C28.0967 30 27.7451 29.8516 27.4482 29.5547C27.1514 29.2578 27.0029 28.9062 27.0029 28.5C27.0029 28.0937 27.1514 27.7422 27.4482 27.4453ZM24.4482 30.4453C24.7451 30.1484 25.0967 30 25.5029 30C25.9092 30 26.2607 30.1484 26.5576 30.4453C26.8545 30.7422 27.0029 31.0937 27.0029 31.5C27.0029 31.9062 26.8545 32.2578 26.5576 32.5547C26.2607 32.8516 25.9092 33 25.5029 33C25.0967 33 24.7451 32.8516 24.4482 32.5547C24.1514 32.2578 24.0029 31.9062 24.0029 31.5C24.0029 31.0937 24.1514 30.7422 24.4482 30.4453Z" fill="#8B8881"/>
</svg>
