<svg width="28" height="18" viewBox="0 0 28 18" fill="none" xmlns="http://www.w3.org/2000/svg">
<path opacity="0.4" d="M3.79381 11.1429H26.9367C27.1688 11.1429 27.3697 11.2277 27.5393 11.3973C27.709 11.567 27.7938 11.7679 27.7938 12V18H24.3652V14.5714H3.79381V18H0.365234V1.71428C0.365234 1.48214 0.450056 1.28125 0.619699 1.11161C0.789342 0.941964 0.990234 0.857142 1.22238 0.857142H2.93666C3.16881 0.857142 3.3697 0.941964 3.53934 1.11161C3.70898 1.28125 3.79381 1.48214 3.79381 1.71428V11.1429ZM10.5036 9.28125C11.1733 8.61161 11.5081 7.80357 11.5081 6.85714C11.5081 5.91071 11.1733 5.10268 10.5036 4.43303C9.83398 3.76339 9.02595 3.42857 8.07952 3.42857C7.13309 3.42857 6.32506 3.76339 5.65541 4.43303C4.98577 5.10268 4.65095 5.91071 4.65095 6.85714C4.65095 7.80357 4.98577 8.61161 5.65541 9.28125C6.32506 9.95089 7.13309 10.2857 8.07952 10.2857C9.02595 10.2857 9.83398 9.95089 10.5036 9.28125ZM27.7938 10.2857V9.42857C27.7938 8.00893 27.2893 6.79911 26.2804 5.79911C25.2804 4.79018 24.0706 4.28571 22.6509 4.28571H13.2224C12.9902 4.28571 12.7893 4.37053 12.6197 4.54018C12.4501 4.70982 12.3652 4.91071 12.3652 5.14286V10.2857H27.7938Z" fill="#8B8881"/>
</svg>
