<svg width="38" height="31" viewBox="0 0 38 31" fill="none" xmlns="http://www.w3.org/2000/svg">
<path opacity="0.4" d="M32.4971 18.25V29.5C32.4971 29.9062 32.3486 30.2578 32.0518 30.5547C31.7549 30.8516 31.4033 31 30.9971 31H21.9971V22H15.9971V31H6.99707C6.59082 31 6.23926 30.8516 5.94238 30.5547C5.64551 30.2578 5.49707 29.9062 5.49707 29.5V18.25C5.49707 18.2344 5.49707 18.2109 5.49707 18.1797C5.5127 18.1484 5.52051 18.125 5.52051 18.1094L18.9971 7L32.4736 18.1094C32.4893 18.1406 32.4971 18.1875 32.4971 18.25ZM37.7236 16.6328L36.2705 18.3672C36.1455 18.5078 35.9814 18.5937 35.7783 18.625H35.708C35.5049 18.625 35.3408 18.5703 35.2158 18.4609L18.9971 4.9375L2.77832 18.4609C2.59082 18.5859 2.40332 18.6406 2.21582 18.625C2.0127 18.5937 1.84863 18.5078 1.72363 18.3672L0.270508 16.6328C0.145508 16.4766 0.0908203 16.2969 0.106445 16.0937C0.12207 15.875 0.208008 15.7031 0.364258 15.5781L17.2158 1.53906C17.7158 1.13281 18.3096 0.929686 18.9971 0.929686C19.6846 0.929686 20.2783 1.13281 20.7783 1.53906L26.4971 6.32031V1.75C26.4971 1.53125 26.5674 1.35156 26.708 1.21094C26.8486 1.07031 27.0283 0.999999 27.2471 0.999999H31.7471C31.9658 0.999999 32.1455 1.07031 32.2861 1.21094C32.4268 1.35156 32.4971 1.53125 32.4971 1.75V11.3125L37.6299 15.5781C37.7861 15.7031 37.8721 15.875 37.8877 16.0937C37.9033 16.2969 37.8486 16.4766 37.7236 16.6328Z" fill="#8B8881"/>
</svg>
