<svg width="14" height="14" viewBox="0 0 14 14" fill="none" xmlns="http://www.w3.org/2000/svg">
<path d="M12.7422 0H1.23047C0.551961 0 0 0.551961 0 1.23047V12.7422C0 13.4207 0.551961 14 1.23047 14H12.7422C13.4207 14 14 13.4207 14 12.7422V1.23047C14 0.551961 13.4207 0 12.7422 0ZM5.35938 1.64062C5.58589 1.64062 5.76953 1.82421 5.76953 2.05078C5.76953 2.2773 5.58589 2.46094 5.35938 2.46094C5.13286 2.46094 4.94922 2.2773 4.94922 2.05078C4.94922 1.82421 5.13286 1.64062 5.35938 1.64062ZM3.71875 1.64062C3.94527 1.64062 4.12891 1.82421 4.12891 2.05078C4.12891 2.2773 3.94527 2.46094 3.71875 2.46094C3.49223 2.46094 3.30859 2.2773 3.30859 2.05078C3.30859 1.82421 3.49223 1.64062 3.71875 1.64062ZM2.07812 1.64062C2.30464 1.64062 2.48828 1.82421 2.48828 2.05078C2.48828 2.2773 2.30464 2.46094 2.07812 2.46094C1.85161 2.46094 1.66797 2.2773 1.66797 2.05078C1.66797 1.82421 1.85161 1.64062 2.07812 1.64062ZM12.332 11.8945C12.332 12.1212 12.1486 12.3047 11.9219 12.3047H2.07812C1.85142 12.3047 1.66797 12.1212 1.66797 11.8945V3.69141C1.66797 3.4647 1.85142 3.28125 2.07812 3.28125H11.9219C12.1486 3.28125 12.332 3.4647 12.332 3.69141V11.8945ZM11.9219 2.46094H10.2812C10.0545 2.46094 9.87109 2.27749 9.87109 2.05078C9.87109 1.82407 10.0545 1.64062 10.2812 1.64062H11.9219C12.1486 1.64062 12.332 1.82407 12.332 2.05078C12.332 2.27749 12.1486 2.46094 11.9219 2.46094Z" fill="black"/>
</svg>
