<svg width="14" height="11" viewBox="0 0 14 11" fill="none" xmlns="http://www.w3.org/2000/svg">
<path d="M13 9.75V3.75C12.8333 3.9375 12.6536 4.10937 12.4609 4.26562C11.0651 5.33854 9.95573 6.21875 9.13281 6.90625C8.86719 7.13021 8.65104 7.30469 8.48438 7.42969C8.31771 7.55469 8.09115 7.68229 7.80469 7.8125C7.52344 7.9375 7.25781 8 7.00781 8H7H6.99219C6.74219 8 6.47396 7.9375 6.1875 7.8125C5.90625 7.68229 5.68229 7.55469 5.51563 7.42969C5.34896 7.30469 5.13281 7.13021 4.86719 6.90625C4.04427 6.21875 2.9349 5.33854 1.53906 4.26562C1.34635 4.10937 1.16667 3.9375 1 3.75V9.75C1 9.81771 1.02344 9.8776 1.07031 9.92969C1.1224 9.97656 1.18229 10 1.25 10H12.75C12.8177 10 12.875 9.97656 12.9219 9.92969C12.974 9.8776 13 9.81771 13 9.75ZM13 1.53906C13 1.52865 13 1.5 13 1.45312C13 1.40625 13 1.3724 13 1.35156C13 1.32552 12.9974 1.29167 12.9922 1.25C12.9922 1.20312 12.9844 1.16927 12.9688 1.14844C12.9583 1.1276 12.9453 1.10417 12.9297 1.07812C12.9141 1.05208 12.8906 1.03385 12.8594 1.02344C12.8281 1.00781 12.7917 0.999999 12.75 0.999999H1.25C1.18229 0.999999 1.1224 1.02604 1.07031 1.07812C1.02344 1.125 1 1.18229 1 1.25C1 2.125 1.38281 2.86458 2.14844 3.46875C3.15365 4.26042 4.19792 5.08594 5.28125 5.94531C5.3125 5.97135 5.40365 6.04948 5.55469 6.17969C5.70573 6.30469 5.82552 6.40104 5.91406 6.46875C6.0026 6.53646 6.11719 6.61979 6.25781 6.71875C6.40365 6.8125 6.53646 6.88281 6.65625 6.92969C6.77604 6.97656 6.88802 7 6.99219 7H7H7.00781C7.11198 7 7.22396 6.97656 7.34375 6.92969C7.46354 6.88281 7.59375 6.8125 7.73438 6.71875C7.88021 6.61979 7.9974 6.53646 8.08594 6.46875C8.17448 6.40104 8.29427 6.30469 8.44531 6.17969C8.59635 6.04948 8.6875 5.97135 8.71875 5.94531C9.80208 5.08594 10.8464 4.26042 11.8516 3.46875C12.1328 3.24479 12.3932 2.94531 12.6328 2.57031C12.8776 2.1901 13 1.84635 13 1.53906ZM14 1.25V9.75C14 10.0937 13.8776 10.388 13.6328 10.6328C13.388 10.8776 13.0938 11 12.75 11H1.25C0.90625 11 0.611979 10.8776 0.367188 10.6328C0.122396 10.388 0 10.0937 0 9.75V1.25C0 0.90625 0.122396 0.611979 0.367188 0.367187C0.611979 0.122395 0.90625 -2.38419e-07 1.25 -2.38419e-07H12.75C13.0938 -2.38419e-07 13.388 0.122395 13.6328 0.367187C13.8776 0.611979 14 0.90625 14 1.25Z" fill="white"/>
</svg>
