<svg width="10" height="12" viewBox="0 0 10 12" fill="none" xmlns="http://www.w3.org/2000/svg">
<path d="M9 1H1V10.7031L4.30469 7.53125L5 6.86719L5.69531 7.53125L9 10.7031V1ZM9.09375 -5.96046e-07C9.21354 -5.96046e-07 9.32813 0.023437 9.4375 0.0703123C9.60938 0.13802 9.74479 0.244791 9.84375 0.390624C9.94792 0.536457 10 0.697916 10 0.874999V10.9453C10 11.1224 9.94792 11.2839 9.84375 11.4297C9.74479 11.5755 9.60938 11.6823 9.4375 11.75C9.33854 11.7917 9.22396 11.8125 9.09375 11.8125C8.84375 11.8125 8.6276 11.7292 8.44531 11.5625L5 8.25L1.55469 11.5625C1.36719 11.7344 1.15104 11.8203 0.90625 11.8203C0.786458 11.8203 0.671875 11.7969 0.5625 11.75C0.390625 11.6823 0.252604 11.5755 0.148438 11.4297C0.0494792 11.2839 0 11.1224 0 10.9453V0.874999C0 0.697916 0.0494792 0.536457 0.148438 0.390624C0.252604 0.244791 0.390625 0.13802 0.5625 0.0703123C0.671875 0.023437 0.786458 -5.96046e-07 0.90625 -5.96046e-07H9.09375Z" fill="#8B8881"/>
</svg>
