<svg width="12" height="12" viewBox="0 0 12 12" fill="none" xmlns="http://www.w3.org/2000/svg">
<path d="M10 8.32031C10 8.26302 9.99479 8.22135 9.98438 8.19531C9.97396 8.16927 9.92708 8.1276 9.84375 8.07031C9.76042 8.00781 9.65365 7.94271 9.52344 7.875C9.39844 7.80208 9.27604 7.73177 9.15625 7.66406C9.03646 7.59635 8.91667 7.53125 8.79688 7.46875C8.68229 7.40625 8.60938 7.36719 8.57813 7.35156C8.55208 7.33594 8.5026 7.30208 8.42969 7.25C8.35677 7.19792 8.29167 7.15885 8.23438 7.13281C8.17708 7.10677 8.1224 7.09375 8.07031 7.09375C7.99219 7.09375 7.89583 7.14844 7.78125 7.25781C7.67188 7.36198 7.57031 7.47917 7.47656 7.60937C7.38281 7.73437 7.28125 7.85156 7.17188 7.96094C7.06771 8.0651 6.98177 8.11719 6.91406 8.11719C6.8776 8.11719 6.83333 8.10937 6.78125 8.09375C6.73438 8.07292 6.69531 8.05469 6.66406 8.03906C6.63281 8.02344 6.58854 8 6.53125 7.96875C6.47396 7.93229 6.4375 7.90885 6.42188 7.89844C5.90625 7.61198 5.46354 7.28385 5.09375 6.91406C4.72396 6.53906 4.39323 6.09375 4.10156 5.57812C4.09115 5.5625 4.06771 5.52604 4.03125 5.46875C4 5.41146 3.97656 5.36719 3.96094 5.33594C3.94531 5.30469 3.92708 5.26562 3.90625 5.21875C3.89063 5.16667 3.88281 5.1224 3.88281 5.08594C3.88281 5.01823 3.9349 4.93229 4.03906 4.82812C4.14844 4.71875 4.26563 4.61719 4.39063 4.52344C4.52083 4.42969 4.63802 4.32812 4.74219 4.21875C4.85156 4.10417 4.90625 4.00781 4.90625 3.92969C4.90625 3.8776 4.89323 3.82292 4.86719 3.76562C4.84115 3.70833 4.80208 3.64323 4.75 3.57031C4.69792 3.4974 4.66406 3.44792 4.64844 3.42187C4.63281 3.39062 4.59375 3.31771 4.53125 3.20312C4.46875 3.08333 4.40365 2.96354 4.33594 2.84375C4.26823 2.72396 4.19792 2.60156 4.125 2.47656C4.05729 2.34635 3.99219 2.23958 3.92969 2.15625C3.8724 2.07292 3.83073 2.02604 3.80469 2.01562C3.77865 2.00521 3.73698 2 3.67969 2C3.42969 2 3.16667 2.05729 2.89063 2.17187C2.65104 2.28125 2.44271 2.52865 2.26563 2.91406C2.08854 3.29427 2 3.63281 2 3.92969C2 4.01302 2.00521 4.10156 2.01563 4.19531C2.03125 4.28906 2.04427 4.36979 2.05469 4.4375C2.07031 4.5 2.09375 4.58594 2.125 4.69531C2.16146 4.79948 2.1875 4.875 2.20313 4.92187C2.22396 4.96875 2.25781 5.05469 2.30469 5.17969C2.35156 5.30469 2.38021 5.38281 2.39063 5.41406C2.70313 6.26823 3.26563 7.10417 4.07813 7.92187C4.89583 8.73437 5.73177 9.29687 6.58594 9.60937C6.61719 9.61979 6.69531 9.64844 6.82031 9.69531C6.94531 9.74219 7.03125 9.77604 7.07813 9.79687C7.125 9.8125 7.20052 9.83854 7.30469 9.875C7.41406 9.90625 7.5 9.92969 7.5625 9.94531C7.63021 9.95573 7.71094 9.96875 7.80469 9.98437C7.89844 9.99479 7.98698 10 8.07031 10C8.36719 10 8.70573 9.91146 9.08594 9.73437C9.47135 9.55729 9.71875 9.34896 9.82813 9.10937C9.94271 8.83333 10 8.57031 10 8.32031ZM12 2.25V9.75C12 10.3698 11.7786 10.8984 11.3359 11.3359C10.8984 11.7786 10.3698 12 9.75 12H2.25C1.63021 12 1.09896 11.7786 0.65625 11.3359C0.21875 10.8984 0 10.3698 0 9.75V2.25C0 1.63021 0.21875 1.10156 0.65625 0.664062C1.09896 0.221353 1.63021 -5.96046e-07 2.25 -5.96046e-07H9.75C10.3698 -5.96046e-07 10.8984 0.221353 11.3359 0.664062C11.7786 1.10156 12 1.63021 12 2.25Z" fill="white"/>
</svg>
