<svg width="6" height="9" viewBox="0 0 6 9" fill="none" xmlns="http://www.w3.org/2000/svg">
<path d="M0.93164 4.32031C0.879557 4.3724 0.853516 4.43229 0.853516 4.5C0.853516 4.56771 0.879557 4.6276 0.93164 4.67969L4.57227 8.32031C4.62435 8.3724 4.68424 8.39844 4.75195 8.39844C4.81966 8.39844 4.87956 8.3724 4.93164 8.32031L5.32227 7.92969C5.37435 7.8776 5.40039 7.81771 5.40039 7.75C5.40039 7.68229 5.37435 7.6224 5.32227 7.57031L2.25195 4.5L5.32227 1.42969C5.37435 1.3776 5.40039 1.31771 5.40039 1.25C5.40039 1.18229 5.37435 1.1224 5.32227 1.07031L4.93164 0.679687C4.87956 0.627603 4.81966 0.601562 4.75195 0.601562C4.68424 0.601562 4.62435 0.627603 4.57227 0.679687L0.93164 4.32031Z" fill="#1D1D18"/>
</svg>
