<svg width="12" height="14" viewBox="0 0 12 14" fill="none" xmlns="http://www.w3.org/2000/svg">
<path d="M9.38281 6.125C9.6276 6.19792 9.85938 6.29687 10.0781 6.42187C10.3021 6.54687 10.5339 6.73698 10.7734 6.99219C11.0182 7.2474 11.2266 7.54948 11.3984 7.89844C11.5703 8.24219 11.7135 8.6901 11.8281 9.24219C11.9427 9.78906 12 10.4036 12 11.0859C12 11.888 11.7396 12.5729 11.2188 13.1406C10.6979 13.7135 10.0703 14 9.33594 14H2.66406C1.92969 14 1.30208 13.7135 0.78125 13.1406C0.260417 12.5729 0 11.888 0 11.0859C0 10.4036 0.0572917 9.78906 0.171875 9.24219C0.286458 8.6901 0.429688 8.24219 0.601563 7.89844C0.773438 7.54948 0.979167 7.2474 1.21875 6.99219C1.46354 6.73698 1.69531 6.54687 1.91406 6.42187C2.13802 6.29687 2.3724 6.19792 2.61719 6.125C2.20573 5.47396 2 4.76562 2 4C2 3.45833 2.10417 2.94271 2.3125 2.45312C2.52604 1.95833 2.8125 1.53125 3.17188 1.17187C3.53125 0.8125 3.95573 0.528645 4.44531 0.320312C4.9401 0.10677 5.45833 -9.53674e-07 6 -9.53674e-07C6.54167 -9.53674e-07 7.05729 0.10677 7.54688 0.320312C8.04167 0.528645 8.46875 0.8125 8.82813 1.17187C9.1875 1.53125 9.47135 1.95833 9.67969 2.45312C9.89323 2.94271 10 3.45833 10 4C10 4.76562 9.79427 5.47396 9.38281 6.125ZM8.11719 1.88281C7.53385 1.29427 6.82813 0.999999 6 0.999999C5.17188 0.999999 4.46354 1.29427 3.875 1.88281C3.29167 2.46615 3 3.17187 3 4C3 4.82812 3.29167 5.53646 3.875 6.125C4.46354 6.70833 5.17188 7 6 7C6.82813 7 7.53385 6.70833 8.11719 6.125C8.70573 5.53646 9 4.82812 9 4C9 3.17187 8.70573 2.46615 8.11719 1.88281ZM9.33594 13C9.79427 13 10.1849 12.8125 10.5078 12.4375C10.8359 12.0677 11 11.6172 11 11.0859C11 9.84115 10.7943 8.85937 10.3828 8.14062C9.97656 7.42187 9.39063 7.04427 8.625 7.00781C7.86979 7.66927 6.99479 8 6 8C5.00521 8 4.13021 7.66927 3.375 7.00781C2.60938 7.04427 2.02083 7.42187 1.60938 8.14062C1.20313 8.85937 1 9.84115 1 11.0859C1 11.6172 1.16146 12.0677 1.48438 12.4375C1.8125 12.8125 2.20573 13 2.66406 13H9.33594Z" fill="#8B8881"/>
</svg>
