<svg width="16" height="17" viewBox="0 0 16 17" fill="none" xmlns="http://www.w3.org/2000/svg">
<path d="M14.394 4.70424C15.0837 5.88281 15.4286 7.17187 15.4286 8.57143C15.4286 9.97098 15.0837 11.2634 14.394 12.4487C13.7042 13.6272 12.7667 14.5614 11.5815 15.2511C10.4029 15.9408 9.11384 16.2857 7.71429 16.2857C6.97098 16.2857 6.24107 16.1786 5.52455 15.9643C5.91964 15.3415 6.1808 14.7924 6.30804 14.317C6.3683 14.0893 6.54911 13.3828 6.85045 12.1975C6.98438 12.4587 7.2288 12.6864 7.58371 12.8806C7.93862 13.0681 8.32031 13.1618 8.72879 13.1618C9.53906 13.1618 10.2623 12.9342 10.8984 12.4788C11.5346 12.0167 12.0268 11.3839 12.375 10.5804C12.7232 9.77679 12.8973 8.87277 12.8973 7.8683C12.8973 7.10491 12.6964 6.38839 12.2946 5.71875C11.8996 5.04911 11.3237 4.50335 10.567 4.08147C9.81027 3.6596 8.95647 3.44866 8.00558 3.44866C7.30246 3.44866 6.64621 3.54576 6.03683 3.73995C5.42746 3.93415 4.90848 4.19196 4.47991 4.51339C4.05804 4.83482 3.69308 5.20647 3.38504 5.62835C3.08371 6.04353 2.85938 6.47545 2.71205 6.92411C2.57143 7.37277 2.50112 7.82143 2.50112 8.27009C2.50112 8.96652 2.63504 9.57924 2.9029 10.1083C3.17076 10.6373 3.5625 11.0089 4.07813 11.2232C4.27902 11.3036 4.40625 11.2366 4.45982 11.0223C4.47321 10.9754 4.5 10.8717 4.54018 10.7109C4.58036 10.5502 4.60714 10.4498 4.62054 10.4096C4.66071 10.2556 4.62388 10.1116 4.51004 9.97768C4.16853 9.5692 3.99777 9.06362 3.99777 8.46094C3.99777 7.44978 4.34598 6.58259 5.04241 5.85938C5.74554 5.12946 6.66295 4.76451 7.79464 4.76451C8.8058 4.76451 9.59263 5.03906 10.1551 5.58817C10.7243 6.13728 11.0089 6.85045 11.0089 7.72768C11.0089 8.86607 10.7779 9.83371 10.3158 10.6306C9.86049 11.4275 9.27455 11.8259 8.55804 11.8259C8.14955 11.8259 7.82143 11.6819 7.57366 11.394C7.32589 11.0993 7.24888 10.7478 7.34263 10.3393C7.39621 10.1049 7.48326 9.79353 7.60379 9.40513C7.73103 9.01004 7.83147 8.66518 7.90513 8.37054C7.98549 8.0692 8.02567 7.81473 8.02567 7.60714C8.02567 7.27232 7.93527 6.99442 7.75446 6.77344C7.57366 6.55245 7.31585 6.44196 6.98103 6.44196C6.56585 6.44196 6.21429 6.63281 5.92634 7.01451C5.63839 7.39621 5.49442 7.87165 5.49442 8.44085C5.49442 8.92969 5.57813 9.33817 5.74554 9.66629L4.75112 13.865C4.63728 14.3337 4.59375 14.9263 4.62054 15.6429C3.24107 15.0335 2.12612 14.0926 1.27567 12.8203C0.425223 11.548 0 10.1317 0 8.57143C0 7.17187 0.344866 5.88281 1.0346 4.70424C1.72433 3.51897 2.65848 2.58147 3.83705 1.89174C5.02232 1.20201 6.31473 0.857142 7.71429 0.857142C9.11384 0.857142 10.4029 1.20201 11.5815 1.89174C12.7667 2.58147 13.7042 3.51897 14.394 4.70424Z" fill="white"/>
</svg>
