<svg width="14" height="12" viewBox="0 0 14 12" fill="none" xmlns="http://www.w3.org/2000/svg">
<path d="M3.49902 11H10.499V9H3.49902V11ZM3.49902 6H10.499V3H9.24902C9.04069 3 8.86361 2.92708 8.71777 2.78125C8.57194 2.63542 8.49902 2.45833 8.49902 2.25V1H3.49902V6ZM12.3506 6.85156C12.4495 6.7526 12.499 6.63542 12.499 6.5C12.499 6.36458 12.4495 6.2474 12.3506 6.14844C12.2516 6.04948 12.1344 6 11.999 6C11.8636 6 11.7464 6.04948 11.6475 6.14844C11.5485 6.2474 11.499 6.36458 11.499 6.5C11.499 6.63542 11.5485 6.7526 11.6475 6.85156C11.7464 6.95052 11.8636 7 11.999 7C12.1344 7 12.2516 6.95052 12.3506 6.85156ZM13.499 6.5V9.75C13.499 9.81771 13.473 9.8776 13.4209 9.92969C13.374 9.97656 13.3167 10 13.249 10H11.499V11.25C11.499 11.4583 11.4261 11.6354 11.2803 11.7813C11.1344 11.9271 10.9574 12 10.749 12H3.24902C3.04069 12 2.86361 11.9271 2.71777 11.7813C2.57194 11.6354 2.49902 11.4583 2.49902 11.25V10H0.749023C0.681315 10 0.621419 9.97656 0.569336 9.92969C0.522461 9.8776 0.499023 9.81771 0.499023 9.75V6.5C0.499023 6.08854 0.644857 5.73698 0.936523 5.44531C1.2334 5.14844 1.58757 5 1.99902 5H2.49902V0.75C2.49902 0.541666 2.57194 0.364583 2.71777 0.218749C2.86361 0.0729161 3.04069 -5.96046e-07 3.24902 -5.96046e-07H8.49902C8.70736 -5.96046e-07 8.93652 0.0520828 9.18652 0.15625C9.43652 0.260416 9.63444 0.385417 9.78027 0.53125L10.9678 1.71875C11.1136 1.86458 11.2386 2.0625 11.3428 2.3125C11.4469 2.5625 11.499 2.79167 11.499 3V5H11.999C12.4105 5 12.762 5.14844 13.0537 5.44531C13.3506 5.73698 13.499 6.08854 13.499 6.5Z" fill="#1D1D18"/>
</svg>
