<svg width="12" height="15" viewBox="0 0 12 15" fill="none" xmlns="http://www.w3.org/2000/svg">
<path d="M3.21429 7.28571H8.35714V5.35714C8.35714 4.64732 8.10603 4.04129 7.60379 3.53906C7.10156 3.03683 6.49554 2.78571 5.78571 2.78571C5.07589 2.78571 4.46987 3.03683 3.96763 3.53906C3.4654 4.04129 3.21429 4.64732 3.21429 5.35714V7.28571ZM11.5714 8.25V14.0357C11.5714 14.3036 11.4777 14.5312 11.2902 14.7188C11.1027 14.9062 10.875 15 10.6071 15H0.964286C0.696429 15 0.46875 14.9062 0.28125 14.7188C0.09375 14.5312 0 14.3036 0 14.0357V8.25C0 7.98214 0.09375 7.75446 0.28125 7.56696C0.46875 7.37946 0.696429 7.28571 0.964286 7.28571H1.28571V5.35714C1.28571 4.125 1.72768 3.06696 2.61161 2.18304C3.49554 1.29911 4.55357 0.857142 5.78571 0.857142C7.01786 0.857142 8.07589 1.29911 8.95982 2.18304C9.84375 3.06696 10.2857 4.125 10.2857 5.35714V7.28571H10.6071C10.875 7.28571 11.1027 7.37946 11.2902 7.56696C11.4777 7.75446 11.5714 7.98214 11.5714 8.25Z" fill="#1D1D18"/>
</svg>
