<svg width="13" height="11" viewBox="0 0 13 11" fill="none" xmlns="http://www.w3.org/2000/svg">
<path d="M3.24805 9V10H0.498047V9H3.24805ZM5.99805 8C6.13346 8 6.25065 8.04948 6.34961 8.14844C6.44857 8.2474 6.49805 8.36458 6.49805 8.5V10.5C6.49805 10.6354 6.44857 10.7526 6.34961 10.8516C6.25065 10.9505 6.13346 11 5.99805 11H3.99805C3.86263 11 3.74544 10.9505 3.64648 10.8516C3.54753 10.7526 3.49805 10.6354 3.49805 10.5V8.5C3.49805 8.36458 3.54753 8.2474 3.64648 8.14844C3.74544 8.04948 3.86263 8 3.99805 8H5.99805ZM7.24805 5V6H0.498047V5H7.24805ZM2.24805 0.999999V2H0.498047V0.999999H2.24805ZM12.498 9V10H6.74805V9H12.498ZM4.99805 -2.38419e-07C5.13346 -2.38419e-07 5.25065 0.0494788 5.34961 0.148437C5.44857 0.247396 5.49805 0.364583 5.49805 0.5V2.5C5.49805 2.63542 5.44857 2.7526 5.34961 2.85156C5.25065 2.95052 5.13346 3 4.99805 3H2.99805C2.86263 3 2.74544 2.95052 2.64648 2.85156C2.54753 2.7526 2.49805 2.63542 2.49805 2.5V0.5C2.49805 0.364583 2.54753 0.247396 2.64648 0.148437C2.74544 0.0494788 2.86263 -2.38419e-07 2.99805 -2.38419e-07H4.99805ZM9.99805 4C10.1335 4 10.2507 4.04948 10.3496 4.14844C10.4486 4.2474 10.498 4.36458 10.498 4.5V6.5C10.498 6.63542 10.4486 6.7526 10.3496 6.85156C10.2507 6.95052 10.1335 7 9.99805 7H7.99805C7.86263 7 7.74544 6.95052 7.64648 6.85156C7.54753 6.7526 7.49805 6.63542 7.49805 6.5V4.5C7.49805 4.36458 7.54753 4.2474 7.64648 4.14844C7.74544 4.04948 7.86263 4 7.99805 4H9.99805ZM12.498 5V6H10.748V5H12.498ZM12.498 0.999999V2H5.74805V0.999999H12.498Z" fill="#8B8881"/>
</svg>
