<svg width="3" height="11" viewBox="0 0 3 11" fill="none" xmlns="http://www.w3.org/2000/svg">
<path d="M3 8.75V10.25C3 10.4583 2.92708 10.6354 2.78125 10.7812C2.63542 10.9271 2.45833 11 2.25 11H0.75C0.541667 11 0.364583 10.9271 0.21875 10.7812C0.0729167 10.6354 0 10.4583 0 10.25V8.75C0 8.54167 0.0729167 8.36458 0.21875 8.21875C0.364583 8.07292 0.541667 8 0.75 8H2.25C2.45833 8 2.63542 8.07292 2.78125 8.21875C2.92708 8.36458 3 8.54167 3 8.75ZM3 4.75V6.25C3 6.45833 2.92708 6.63542 2.78125 6.78125C2.63542 6.92708 2.45833 7 2.25 7H0.75C0.541667 7 0.364583 6.92708 0.21875 6.78125C0.0729167 6.63542 0 6.45833 0 6.25V4.75C0 4.54167 0.0729167 4.36458 0.21875 4.21875C0.364583 4.07292 0.541667 4 0.75 4H2.25C2.45833 4 2.63542 4.07292 2.78125 4.21875C2.92708 4.36458 3 4.54167 3 4.75ZM3 0.75V2.25C3 2.45833 2.92708 2.63542 2.78125 2.78125C2.63542 2.92708 2.45833 3 2.25 3H0.75C0.541667 3 0.364583 2.92708 0.21875 2.78125C0.0729167 2.63542 0 2.45833 0 2.25V0.75C0 0.541666 0.0729167 0.364583 0.21875 0.218749C0.364583 0.0729161 0.541667 -5.96046e-07 0.75 -5.96046e-07H2.25C2.45833 -5.96046e-07 2.63542 0.0729161 2.78125 0.218749C2.92708 0.364583 3 0.541666 3 0.75Z" fill="white"/>
</svg>
