<svg width="12" height="18" viewBox="0 0 12 18" fill="none" xmlns="http://www.w3.org/2000/svg">
<path d="M11.1194 9.38058L3.66629 16.8337C3.53906 16.9609 3.38839 17.0246 3.21429 17.0246C3.04018 17.0246 2.88951 16.9609 2.76228 16.8337L1.09487 15.1663C0.967634 15.0391 0.904018 14.8884 0.904018 14.7143C0.904018 14.5402 0.967634 14.3895 1.09487 14.2623L6.42857 8.92857L1.09487 3.59487C0.967634 3.46763 0.904018 3.31696 0.904018 3.14286C0.904018 2.96875 0.967634 2.81808 1.09487 2.69085L2.76228 1.02344C2.88951 0.896205 3.04018 0.832589 3.21429 0.832589C3.38839 0.832589 3.53906 0.896205 3.66629 1.02344L11.1194 8.47656C11.2467 8.60379 11.3103 8.75446 11.3103 8.92857C11.3103 9.10268 11.2467 9.25335 11.1194 9.38058Z" fill="white"/>
</svg>
