<svg width="16" height="19" viewBox="0 0 16 19" fill="none" xmlns="http://www.w3.org/2000/svg">
<path d="M9.75335 13.067V15.1864C9.75335 15.635 9.62277 15.8594 9.36161 15.8594C9.20759 15.8594 9.05692 15.7857 8.9096 15.6384V12.615C9.05692 12.4676 9.20759 12.394 9.36161 12.394C9.62277 12.394 9.75335 12.6183 9.75335 13.067ZM13.1484 13.077V13.5391H12.2444V13.077C12.2444 12.6217 12.3951 12.394 12.6964 12.394C12.9978 12.394 13.1484 12.6217 13.1484 13.077ZM3.44531 10.8873H4.52009V9.94308H1.38616V10.8873H2.44085V16.6027H3.44531V10.8873ZM6.33817 16.6027H7.23214V11.6406H6.33817V15.4375C6.13728 15.7188 5.94643 15.8594 5.76562 15.8594C5.64509 15.8594 5.57478 15.7891 5.55469 15.6484C5.54799 15.6283 5.54464 15.5112 5.54464 15.2969V11.6406H4.65067V15.5681C4.65067 15.8962 4.67746 16.1406 4.73103 16.3013C4.81138 16.5491 5.00558 16.673 5.31362 16.673C5.63504 16.673 5.97656 16.4688 6.33817 16.0603V16.6027ZM10.6473 15.1161V13.1373C10.6473 12.6484 10.6172 12.317 10.5569 12.1429C10.4431 11.7679 10.2054 11.5804 9.84375 11.5804C9.50893 11.5804 9.19755 11.7612 8.9096 12.1228V9.94308H8.01563V16.6027H8.9096V16.1205C9.21094 16.4888 9.52232 16.673 9.84375 16.673C10.2054 16.673 10.4431 16.4888 10.5569 16.1205C10.6172 15.9397 10.6473 15.6049 10.6473 15.1161ZM14.0424 15.0156V14.885H13.1283C13.1283 15.2266 13.1217 15.4308 13.1083 15.4978C13.0614 15.7388 12.9275 15.8594 12.7065 15.8594C12.3984 15.8594 12.2444 15.6283 12.2444 15.1663V14.2924H14.0424V13.2578C14.0424 12.7288 13.952 12.3404 13.7712 12.0926C13.51 11.7511 13.1551 11.5804 12.7065 11.5804C12.2511 11.5804 11.8929 11.7511 11.6317 12.0926C11.4442 12.3404 11.3504 12.7288 11.3504 13.2578V14.9955C11.3504 15.5246 11.4475 15.9129 11.6417 16.1607C11.9029 16.5022 12.2645 16.673 12.7266 16.673C13.2087 16.673 13.5703 16.4955 13.8114 16.1406C13.9319 15.9598 14.0022 15.779 14.0223 15.5982C14.0357 15.5379 14.0424 15.3437 14.0424 15.0156ZM7.93527 5.84487V3.73549C7.93527 3.27344 7.79129 3.04241 7.50335 3.04241C7.2154 3.04241 7.07143 3.27344 7.07143 3.73549V5.84487C7.07143 6.31362 7.2154 6.54799 7.50335 6.54799C7.79129 6.54799 7.93527 6.31362 7.93527 5.84487ZM15.1574 13.3884C15.1574 14.9554 15.0703 16.1272 14.8962 16.904C14.8025 17.2991 14.6083 17.6306 14.3136 17.8984C14.019 18.1663 13.6775 18.3203 13.2891 18.3605C12.0569 18.5011 10.1987 18.5714 7.71429 18.5714C5.22991 18.5714 3.37165 18.5011 2.13951 18.3605C1.75112 18.3203 1.40625 18.1663 1.10491 17.8984C0.810268 17.6306 0.61942 17.2991 0.532366 16.904C0.358259 16.154 0.271205 14.9821 0.271205 13.3884C0.271205 11.8214 0.358259 10.6496 0.532366 9.87277C0.626116 9.47768 0.820313 9.1462 1.11496 8.87835C1.4096 8.61049 1.75446 8.45312 2.14955 8.40625C3.375 8.27232 5.22991 8.20536 7.71429 8.20536C10.1987 8.20536 12.0569 8.27232 13.2891 8.40625C13.6775 8.45312 14.019 8.61049 14.3136 8.87835C14.615 9.1462 14.8092 9.47768 14.8962 9.87277C15.0703 10.6228 15.1574 11.7946 15.1574 13.3884ZM5.13281 0.571427H6.15737L4.94196 4.57924V7.30134H3.9375V4.57924C3.84375 4.0837 3.63951 3.37388 3.32478 2.44978C3.07701 1.76004 2.85938 1.13393 2.67188 0.571427H3.73661L4.44978 3.21317L5.13281 0.571427ZM8.84933 3.91629V5.67411C8.84933 6.21652 8.75558 6.61161 8.56808 6.85938C8.31362 7.20089 7.95871 7.37165 7.50335 7.37165C7.05469 7.37165 6.70313 7.20089 6.44866 6.85938C6.26116 6.60491 6.16741 6.20982 6.16741 5.67411V3.91629C6.16741 3.38058 6.26116 2.98884 6.44866 2.74107C6.70313 2.39955 7.05469 2.22879 7.50335 2.22879C7.95871 2.22879 8.31362 2.39955 8.56808 2.74107C8.75558 2.98884 8.84933 3.38058 8.84933 3.91629ZM12.2143 2.28906V7.30134H11.3002V6.74888C10.9453 7.16406 10.6004 7.37165 10.2656 7.37165C9.95759 7.37165 9.76005 7.24777 9.67299 7C9.61942 6.83929 9.59263 6.58817 9.59263 6.24665V2.28906H10.5067V5.97545C10.5067 6.19643 10.51 6.31362 10.5167 6.32701C10.5368 6.47433 10.6071 6.54799 10.7277 6.54799C10.9085 6.54799 11.0993 6.40402 11.3002 6.11607V2.28906H12.2143Z" fill="white"/>
</svg>
